<?xml version="1.0" encoding="utf-8"?>
<!-- Generator: Adobe Illustrator 27.5.0, SVG Export Plug-In . SVG Version: 6.00 Build 0)  -->
<svg version="1.1" xmlns="http://www.w3.org/2000/svg" xmlns:xlink="http://www.w3.org/1999/xlink" x="0px" y="0px"
	 viewBox="0 0 1200 1200" style="enable-background:new 0 0 1200 1200;" xml:space="preserve">
<g id="BG">
	<rect x="0" style="fill:#41505E;" width="1200" height="1200"/>
</g>
<g id="Object">
	<g>
		<path style="fill:#CCB8B8;" d="M424.752,777.959c1.49-2.554,1.751-5.422,0.7-7.673c-1.304-2.784-4.695-4.4-7.722-3.644
			c-2.974,0.729-5.211,3.513-5.319,6.613c-0.084,2.403,1.594,5.426,3.902,7.035c1.083,0.756,2.224,1.141,3.332,1.141
			c0.609-0.003,1.21-0.118,1.783-0.351C422.734,780.55,423.853,779.501,424.752,777.959z M421.769,776.218
			c-0.348,0.594-0.914,1.367-1.643,1.66c-0.515,0.216-1.132,0.074-1.836-0.422c-1.436-1.002-2.465-2.979-2.426-4.079
			c0.052-1.539,1.235-3.023,2.691-3.381c0.228-0.054,0.464-0.081,0.702-0.081c1.252,0,2.553,0.742,3.066,1.836
			C422.996,773.188,422.478,775.003,421.769,776.218z"/>
		<path style="fill:#CCB8B8;" d="M440.975,773.599c-2.683-0.513-5.535,0.992-6.497,3.448c-0.278,0.712-0.415,1.508-0.407,2.369
			c0.024,2.328,0.923,4.211,2.532,5.301c0.924,0.624,2.033,0.938,3.224,0.938c0.916,0,1.883-0.186,2.851-0.564
			c1.814-0.705,3.158-2.227,3.509-3.968c0.159-0.793,0.125-1.65-0.101-2.541C445.448,776.066,443.393,774.065,440.975,773.599z
			 M441.426,781.873c-1.152,0.452-2.205,0.442-2.885-0.017c-0.643-0.435-1.002-1.313-1.014-2.473
			c-0.003-0.415,0.054-0.779,0.17-1.076c0.359-0.918,1.559-1.505,2.624-1.313c1.112,0.213,2.105,1.218,2.416,2.44
			c0.1,0.388,0.12,0.729,0.064,1.009C442.684,781.023,442.131,781.6,441.426,781.873z"/>
		<path style="fill:#CCB8B8;" d="M425.938,792.186c-0.854-0.272-1.82-0.427-2.615-0.012c-0.388,0.203-0.702,0.526-0.943,0.889
			c-1.552,2.337,0.602,7.299,3.624,5.087c0.773-0.564,1.505-1.232,1.915-2.095c0.41-0.864,0.442-1.959-0.123-2.73
			C427.357,792.731,426.643,792.409,425.938,792.186z"/>
		<path style="fill:#CCB8B8;" d="M440.098,809.025c-0.496-0.601-1.343-0.822-2.119-0.747c-1.154,0.108-2.269,0.869-2.617,1.974
			c-0.764,2.424,2.487,4.408,4.346,2.742c0.847-0.761,1.144-2.043,0.816-3.133C440.435,809.559,440.3,809.267,440.098,809.025z"/>
		<path style="fill:#CCB8B8;" d="M350.237,438.056c-1.68,2.433-2.158,5.274-1.279,7.599c0.967,2.558,3.649,4.306,6.392,4.306
			c0.344,0,0.688-0.027,1.031-0.084c3.022-0.506,5.463-3.111,5.805-6.192c0.265-2.389-1.178-5.53-3.357-7.312
			c-1.584-1.296-3.376-1.717-5.044-1.174C352.444,435.626,351.249,436.588,350.237,438.056z M354.841,438.484
			c0.126-0.04,0.256-0.061,0.391-0.061c0.43,0,0.904,0.209,1.41,0.624c1.355,1.107,2.232,3.158,2.109,4.251
			c-0.169,1.529-1.461,2.922-2.937,3.168c-1.456,0.246-3.116-0.692-3.626-2.035c-0.562-1.488,0.091-3.256,0.891-4.413
			C353.471,439.453,354.096,438.727,354.841,438.484z"/>
		<path style="fill:#CCB8B8;" d="M333.729,441.173c0.494,0.135,1,0.199,1.503,0.199c2.18,0,4.309-1.215,5.237-3.145
			c0.331-0.685,0.528-1.471,0.586-2.328c0.154-2.325-0.601-4.272-2.122-5.48c-1.545-1.221-3.742-1.525-6.028-0.837
			c-1.863,0.567-3.319,1.981-3.801,3.695c-0.219,0.779-0.25,1.633-0.091,2.541C329.457,438.373,331.355,440.526,333.729,441.173z
			 M332.43,434.212c0.16-0.574,0.754-1.103,1.478-1.323c0.483-0.148,0.941-0.219,1.362-0.219c0.609,0,1.132,0.152,1.515,0.456
			c0.607,0.483,0.899,1.387,0.822,2.544c-0.027,0.415-0.111,0.773-0.25,1.059c-0.428,0.887-1.67,1.39-2.716,1.11
			c-1.093-0.297-2.008-1.373-2.225-2.615C332.347,434.83,332.35,434.489,332.43,434.212z"/>
		<path style="fill:#CCB8B8;" d="M350.133,423.779c0.83,0.336,1.783,0.564,2.607,0.211c0.402-0.172,0.739-0.471,1.007-0.817
			c1.726-2.212-0.047-7.322-3.227-5.346c-0.813,0.504-1.593,1.115-2.068,1.945c-0.474,0.83-0.589,1.918-0.083,2.73
			C348.759,423.13,349.448,423.504,350.133,423.779z"/>
		<path style="fill:#CCB8B8;" d="M337.289,405.916c0.451,0.636,1.279,0.92,2.058,0.906c1.157-0.022,2.327-0.695,2.757-1.77
			c0.947-2.359-2.146-4.586-4.125-3.064c-0.903,0.695-1.296,1.95-1.051,3.062C336.995,405.359,337.106,405.66,337.289,405.916z"/>
		<path style="fill:#CCB8B8;" d="M303.845,630.626c3.337,0,6.7-0.206,10.028-0.763c5.097-0.854,12.213-2.834,17.173-7.406
			c2.574-2.372,2.671-4.511,2.298-5.885c-1.13-4.17-7.536-5.77-8.81-6.047c-11.631-2.544-23.858-1.947-35.355,1.717
			c-6.588,2.106-12.711,5.152-18.201,9.06c-1.088,0.773-1.576,1.687-1.448,2.72c0.091,0.732,0.537,1.721,2.134,2.288
			c6.59,2.359,13.645,3.114,20.306,3.685C295.828,630.33,299.818,630.626,303.845,630.626z M290.23,615.537
			c10.919-3.482,22.526-4.042,33.569-1.636c1.908,0.417,3.661,1.166,4.825,1.987c-15.992-1.388-32.45-0.135-48.105,3.69
			C283.615,617.988,286.847,616.617,290.23,615.537z M277.364,621.293c16.903-4.574,34.878-6.126,52.26-4.481
			c-1.581,2.72-4.359,4.572-7.715,5.122c-8.414,1.37-17.111,1.441-25.528,1.512c-4.059,0.041-7.697-0.503-11.214-1.019
			c-2.598-0.381-5.27-0.761-8.128-0.93C277.148,621.432,277.254,621.357,277.364,621.293z M275.737,622.316
			c3.302,0.12,6.35,0.535,9.303,0.968c3.443,0.506,7,1.026,10.981,1.026c0.123,0,0.248,0,0.373,0
			c8.444-0.071,17.175-0.142,25.653-1.525c3.415-0.559,6.21-2.428,7.96-5.107c0.061,0.771-0.641,1.63-1.304,2.242
			c-4.334,3.992-10.767,5.76-15.402,6.536c-6.949,1.171-14.201,0.688-21.035,0.098c-5.986-0.513-12.291-1.178-18.297-3.125
			C274.543,623.038,275.149,622.688,275.737,622.316z"/>
		<path style="fill:#CCB8B8;" d="M265.842,550.34c0.778,0.344,1.615,0.506,2.455,0.506c2.131,0,4.28-1.049,5.512-2.872
			c1.67-2.47,1.503-5.966-0.398-8.311c-1.474-1.825-4.626-2.959-7.329-2.645c-1.989,0.233-3.501,1.222-4.255,2.784
			c-0.599,1.242-0.732,2.737-0.397,4.447C261.991,547.094,263.641,549.372,265.842,550.34z M264.94,541.304
			c0.228-0.472,0.747-0.759,1.542-0.854c0.17-0.017,0.346-0.027,0.521-0.027c1.507,0,3.135,0.688,3.724,1.414
			c0.936,1.154,1.032,3,0.221,4.201c-0.784,1.164-2.483,1.687-3.712,1.141c-1.378-0.604-2.151-2.254-2.414-3.597
			C264.636,542.636,264.677,541.85,264.94,541.304z"/>
		<path style="fill:#CCB8B8;" d="M252.697,557.996c2.268-1.37,3.359-4.343,2.485-6.762c-0.253-0.705-0.665-1.38-1.223-2.011
			c-1.512-1.701-3.374-2.497-5.25-2.261c-1.91,0.25-3.614,1.599-4.67,3.705c-0.854,1.697-0.849,3.685,0.012,5.19
			c0.393,0.692,0.968,1.302,1.706,1.812c1.132,0.783,2.472,1.181,3.789,1.181C250.655,558.85,251.752,558.566,252.697,557.996z
			 M247.721,554.828c-0.309-0.216-0.535-0.442-0.67-0.682c-0.285-0.499-0.255-1.272,0.074-1.927
			c0.535-1.066,1.275-1.731,2.031-1.832c0.066-0.007,0.132-0.013,0.199-0.013c0.651,0,1.358,0.401,2.018,1.144
			c0.265,0.3,0.452,0.597,0.557,0.887c0.319,0.881-0.159,2.112-1.022,2.635C250.004,555.587,248.693,555.503,247.721,554.828z"/>
		<path style="fill:#CCB8B8;" d="M249.54,534.98c0.692,0.152,1.409-0.078,2.057-0.371c0.785-0.356,1.576-0.872,1.883-1.69
			c0.149-0.4,0.167-0.84,0.11-1.262c-0.376-2.72-5.078-4.948-5.837-1.368c-0.194,0.914-0.294,1.878-0.039,2.777
			C247.969,533.965,248.642,534.785,249.54,534.98z"/>
		<path style="fill:#CCB8B8;" d="M228.48,528.331c-0.125,1.107,0.479,2.237,1.407,2.823c0.258,0.162,0.54,0.287,0.839,0.334
			c0.739,0.116,1.485-0.273,1.996-0.83c0.756-0.828,1.073-2.111,0.619-3.145C232.345,525.244,228.75,525.904,228.48,528.331z"/>
		<path style="fill:#CCB8B8;" d="M792.233,767.276c-3.023-0.753-6.416,0.86-7.72,3.647c-1.053,2.251-0.791,5.119,0.699,7.673
			c0.897,1.535,2.014,2.585,3.32,3.118c0.577,0.236,1.178,0.351,1.788,0.351c1.108,0,2.247-0.381,3.33-1.137
			c2.308-1.609,3.987-4.636,3.904-7.039C797.444,770.789,795.207,768.005,792.233,767.276z M791.673,778.094
			c-0.702,0.493-1.319,0.638-1.836,0.422c-0.729-0.297-1.296-1.066-1.642-1.66c-0.709-1.215-1.227-3.03-0.553-4.468
			c0.513-1.097,1.814-1.839,3.065-1.839c0.238,0,0.472,0.027,0.702,0.081c1.454,0.358,2.637,1.842,2.691,3.381
			C794.139,775.111,793.109,777.092,791.673,778.094z"/>
		<path style="fill:#CCB8B8;" d="M768.988,774.234c-2.419,0.469-4.474,2.473-5.11,4.987c-0.228,0.891-0.261,1.744-0.101,2.541
			c0.349,1.741,1.694,3.263,3.508,3.968c0.968,0.378,1.935,0.564,2.853,0.564c1.189,0,2.298-0.314,3.221-0.938
			c1.611-1.09,2.512-2.973,2.534-5.304c0.008-0.857-0.128-1.653-0.407-2.365C774.528,775.236,771.674,773.734,768.988,774.234z
			 M771.422,782.494c-0.68,0.459-1.733,0.462-2.885,0.017c-0.705-0.273-1.257-0.85-1.373-1.431c-0.057-0.28-0.035-0.628,0.062-1.009
			c0.311-1.221,1.304-2.227,2.416-2.443c0.142-0.027,0.283-0.04,0.427-0.04c0.94,0,1.886,0.557,2.197,1.353
			c0.118,0.3,0.175,0.661,0.17,1.076C772.426,781.178,772.065,782.059,771.422,782.494z"/>
		<path style="fill:#CCB8B8;" d="M786.642,792.811c-0.795-0.413-1.763-0.258-2.617,0.012c-0.704,0.224-1.419,0.545-1.856,1.141
			c-0.567,0.771-0.535,1.864-0.125,2.728c0.412,0.864,1.144,1.532,1.915,2.097c3.022,2.212,5.178-2.75,3.624-5.087
			C787.342,793.337,787.028,793.013,786.642,792.811z"/>
		<path style="fill:#CCB8B8;" d="M771.986,808.914c-0.778-0.073-1.623,0.147-2.121,0.747c-0.201,0.243-0.336,0.535-0.427,0.835
			c-0.327,1.092-0.03,2.372,0.818,3.133c1.858,1.669,5.109-0.317,4.344-2.742C774.253,809.785,773.138,809.024,771.986,808.914z"/>
		<path style="fill:#CCB8B8;" d="M853.585,449.875c0.342,0.057,0.685,0.084,1.029,0.084c2.742,0,5.424-1.748,6.392-4.306
			c0.877-2.325,0.4-5.166-1.28-7.599c-1.012-1.468-2.205-2.43-3.546-2.858c-1.67-0.55-3.46-0.121-5.046,1.174
			c-2.178,1.782-3.622,4.923-3.357,7.312C848.12,446.764,850.562,449.369,853.585,449.875z M853.32,439.048
			c0.665-0.547,1.272-0.739,1.802-0.564c0.746,0.243,1.37,0.968,1.761,1.535c0.8,1.157,1.453,2.925,0.891,4.413
			c-0.508,1.343-2.166,2.294-3.622,2.035c-1.48-0.246-2.77-1.64-2.941-3.168C851.09,442.206,851.965,440.154,853.32,439.048z"/>
		<path style="fill:#CCB8B8;" d="M868.909,435.9c0.057,0.857,0.255,1.643,0.586,2.328c0.93,1.93,3.059,3.145,5.237,3.145
			c0.503,0,1.007-0.064,1.502-0.199c2.377-0.648,4.273-2.801,4.721-5.355c0.157-0.908,0.126-1.761-0.093-2.544
			c-0.481-1.711-1.937-3.124-3.799-3.691c-2.286-0.685-4.484-0.388-6.03,0.837C869.51,431.628,868.755,433.575,868.909,435.9z
			 M873.181,433.126c0.381-0.304,0.904-0.456,1.515-0.456c0.418,0,0.879,0.071,1.362,0.219c0.724,0.219,1.318,0.749,1.478,1.319
			c0.078,0.28,0.083,0.621,0.013,1.016c-0.216,1.242-1.132,2.318-2.229,2.615c-1.043,0.273-2.284-0.223-2.713-1.113
			c-0.138-0.283-0.223-0.641-0.25-1.056C872.28,434.513,872.573,433.608,873.181,433.126z"/>
		<path style="fill:#CCB8B8;" d="M857.224,423.99c0.823,0.353,1.776,0.125,2.608-0.211c0.685-0.275,1.373-0.65,1.765-1.277
			c0.506-0.811,0.391-1.9-0.084-2.73c-0.474-0.83-1.255-1.441-2.067-1.945c-3.182-1.976-4.955,3.135-3.229,5.346
			C856.485,423.519,856.822,423.818,857.224,423.99z"/>
		<path style="fill:#CCB8B8;" d="M870.618,406.822c0.779,0.014,1.606-0.27,2.057-0.906c0.182-0.256,0.295-0.557,0.363-0.865
			c0.243-1.112-0.15-2.367-1.053-3.062c-1.979-1.522-5.07,0.705-4.125,3.064C868.29,406.127,869.461,406.8,870.618,406.822z"/>
		<path style="fill:#CCB8B8;" d="M957.646,568.635c-11.788,0-23.505,1.849-34.827,5.497c-0.881,0.28-1.878,0.574-2.941,0.884
			c-1.758,0.513-3.676,1.073-5.556,1.733c4.042-5.147,7.007-10.479,8.79-16.073c3.103-9.728,2.802-20.384,2.537-29.781
			c-0.017-0.584-0.324-1.117-0.818-1.421c-0.494-0.307-1.108-0.344-1.636-0.098c-17.06,7.913-27.125,29.403-22.437,47.904
			c0.488,1.92,1.265,4.224,3.006,5.78c-3.811,3.475-8.245,6.877-13.32,10.224c-2.826,1.864-5.743,3.654-8.653,5.416
			c1.65-2.942,3.858-5.53,5.237-8.633c2.306-5.191,2.019-11.272,0.378-16.719c-1.642-5.448-4.537-10.396-7.406-15.285
			c-2.404-4.096-4.808-8.193-7.212-12.289c-2.564,0.805-3.804,3.747-4.368,6.423c-1.346,6.382-0.7,13.038,0.579,19.434
			c1.564,7.818,4.068,15.439,7.428,22.643c0.805,1.724,1.564,3.788,2.682,5.323c0.145,0.201,0.263,0.346,0.385,0.493
			c-0.543,0.326-1.093,0.663-1.633,0.987c-2.436,1.464-4.864,2.936-7.275,4.429l-11.695-11.695
			c-3.425-3.914-7.644-12.331-8.866-17.696c-0.607-2.667-1.034-5.365-1.375-8.071c0.113,0.128,0.175,0.272,0.314,0.393
			c6.3,5.551,15.818-14.744,16.48-18.796c0.029-0.174,0.052-0.364-0.039-0.515c-0.206-0.339-0.724-0.17-1.061,0.037
			c-2.386,1.466-13.757,8.922-16.127,14.715c-0.248-3.292-0.331-6.597-0.184-9.902c0.164-3.72,0.594-7.438,1.174-11.142
			c0.86,0.717,2.129,1.302,4.138,1.302c0.246,0,0.504-0.01,0.773-0.027c6.934-0.469,13.532-4.387,17.846-7.592
			c6.22-4.623,11.297-10.588,15.964-16.304c4.408-5.399,8.967-11.223,12.005-17.816c0.729-1.579,0.327-2.601-0.14-3.182
			c-0.66-0.823-1.674-1.097-3.015-0.844c-0.002,0-0.002,0-0.002,0c-6.85,1.34-13.52,3.759-19.83,7.197
			c-9.816,5.35-18.248,12.876-24.615,21.889c0.429-1.812,0.86-3.617,1.294-5.409c1.193-4.93,2.426-10.032,3.427-15.096
			c1.08-5.463,1.743-10.578,2.057-15.417c0.405,0.135,0.822,0.216,1.252,0.216c1.792,0,3.745-1.137,5.357-3.192
			c11.557-14.725,20.166-31.272,25.59-49.19c0.132-0.429,0.088-0.894-0.12-1.296c-0.466-0.898-1.267-1.468-2.261-1.613
			c-1.665-0.236-3.54,0.816-4.661,1.981c-8.533,8.82-15.667,18.909-21.2,29.984c-0.434,0.87-0.948,1.832-1.495,2.858
			c-0.923,1.731-1.93,3.629-2.829,5.564c-0.839-6.747-2.612-12.805-5.448-18.157c-4.893-9.228-12.937-16.578-20.036-23.063
			c-0.427-0.388-1.022-0.54-1.582-0.401c-0.562,0.142-1.016,0.553-1.21,1.097c-6.554,18.396,1.932,41.196,18.919,50.823
			c1.768,1.006,4.031,2.065,6.431,1.853c-0.211,5.338-0.928,11.091-2.153,17.286c-0.688,3.482-1.498,6.981-2.323,10.452
			c-0.007-0.018-0.012-0.034-0.017-0.052c-0.973-3.337-1.269-6.85-2.554-10.101c-2.139-5.417-6.816-9.526-12.007-12.168
			c-5.193-2.64-10.929-3.987-16.603-5.311c-4.753-1.11-9.505-2.219-14.258-3.329c-1.267,2.493-0.005,5.515,1.55,7.84
			c3.713,5.546,9.072,9.79,14.696,13.377c6.878,4.386,14.293,7.926,22.024,10.528c1.849,0.621,3.914,1.518,5.854,1.771
			c0.272,0.037,0.484,0.054,0.69,0.068c-0.152,0.624-0.299,1.26-0.449,1.879c-1.78,7.362-3.587,14.902-4.694,22.553
			c-1.044-1.8-2.342-3.42-3.394-4.579c-3.126-3.442-7.288-6.08-11.715-7.423c-10.337-3.141-21.013-0.179-28.144,2.855
			c-0.287,0.122-0.763,0.329-1.233,0.665c5.534-10.524,4.565-23.473-2.698-34.792c-1.448-2.256-3.141-4.312-4.825-6.311
			c3.189-1.257,5.736-5.539,7.489-8.987c2.246-4.43,3.506-9.222,4.724-13.858c0.788-3,1.768-6.728,1.002-10.366
			c-0.122-0.577-0.528-1.049-1.08-1.259c-0.552-0.209-1.171-0.121-1.643,0.233c-7.413,5.534-11.203,14.084-14.739,23.097
			l-0.165,0.418c-0.447,1.122-0.886,2.296-1.21,3.452c-2.801-4.332-4.434-9.083-4.597-13.922c0-0.017,0-0.03-0.002-0.047
			c-0.123-3.955,1.464-7.271,3.889-11.034c0.621-0.965,1.269-1.917,1.918-2.868c1.935-2.841,3.938-5.78,5.254-9.111
			c3.224-8.155,2.041-18.413-3.243-28.141c-1.566-2.885-3.438-3.02-4.424-2.855c-1.213,0.223-1.996,1.073-2.46,1.576l-1.093,1.183
			c-2.686-3.828-7.506-5.734-11.618-6.97c-0.435-0.132-1.763-0.53-2.831,0.398c-0.391,0.334-0.582,0.719-0.7,0.958l-0.42,0.852
			c-1.119-1.645-2.563-3.069-4.279-4.095c-0.209-0.125-0.643-0.381-1.223-0.418c-0.649-0.03-1.852,0.145-2.623,1.89l-1.768,3.99
			c-0.459-0.336-0.909-0.697-1.38-1.001c-0.594-0.385-1.26-0.742-2.111-0.783c-1.007,0.01-2.863,0.358-3.934,3.516
			c-0.808,2.379-1.62,5.203-1.515,8.139c0.042,1.181,0.415,2.568,0.99,3.936c-1.248-0.432-2.281-0.331-3.06,0.332
			c-1.017,0.864-0.96,2.143-0.938,2.622c0.673,14.813,10.2,28.877,23.709,34.998c3.13,1.414,5.809,2.092,8.311,2.092
			c0.299,0,0.594-0.027,0.889-0.047c0.412,0.533,0.796,1.086,1.235,1.599c0.197,3.612,1.152,7.157,2.661,10.551
			c-1.96-1.294-3.992-2.527-6.165-3.583c-5.463-2.645-11.017-3.897-16.139-3.678c-1.618-3.85-4.926-6.317-8.127-8.706
			c-0.574-0.429-1.144-0.854-1.699-1.286c-4.738-3.671-8.707-8.139-11.801-13.278c-0.295-0.489-0.815-0.803-1.387-0.833
			c-0.574-0.078-1.12,0.223-1.468,0.678c-2.207,2.898-2.111,7.012,0.283,12.221c1.555,3.388,3.15,6.006,4.926,8.169
			c-0.585,0.034-1.166,0.122-1.748,0.192l-86.581-86.579c-0.052-0.16-0.105-0.32-0.208-0.466c-3.045-4.282-6.158-8.962-8.284-14.168
			c-1.761-4.322-2.62-8.614-2.534-12.582c0.034,0.013,0.066,0.027,0.1,0.04c9.379,3.671,20.662,2.156,28.743-3.85
			c2.634-1.954,3.767-4.231,3.192-6.418c-0.651-2.487-3.14-3.874-7.008-3.911c-2.998,0.017-5.888,0.293-8.66,0.779l6.298-7.902
			c0.871-1.09,1.77-2.217,2.497-3.519c0.202-0.358,0.817-1.451,0.38-2.659c-0.3-0.833-0.96-1.296-1.242-1.491
			c-2.927-2.053-6.796-2.671-10.232-1.721c-0.673-4.086-2.102-7.796-4.326-10.848c-0.536-0.736-1.554-0.924-2.323-0.439
			c-6.887,4.38-11.528,11.977-12.51,20.051c-2.041-1.908-4.552-3.671-7.832-5.441c-5.048-2.72-9.144-3.077-12.179-1.07
			c-0.477,0.317-0.766,0.85-0.771,1.424c-0.007,0.57,0.272,1.11,0.742,1.437c4.926,3.415,9.131,7.666,12.495,12.63
			c0.393,0.58,0.779,1.174,1.167,1.772c2.176,3.347,4.427,6.809,8.171,8.678c-0.562,5.099,0.342,10.723,2.634,16.341
			c0.425,1.043,0.921,2.052,1.417,3.059l-36.194-36.194c-0.675-0.675-1.768-0.675-2.443,0l-31.814,31.814
			c0.184-0.516,0.405-1.024,0.562-1.547c0.896-2.976,1.392-6.036,1.873-8.999c0.3-1.853,0.601-3.702,0.997-5.53
			c1.282-5.902,4.128-11.01,8.233-14.776c0.017-0.017,0.035-0.034,0.052-0.051c2.92-2.655,6.472-3.607,10.902-4.214
			c1.139-0.155,2.286-0.28,3.433-0.408c3.415-0.378,6.948-0.769,10.33-1.933c8.292-2.851,15.316-10.42,19.272-20.762
			c1.172-3.071,0.061-4.586-0.71-5.217c-0.953-0.776-2.107-0.82-2.799-0.847l-1.604-0.061c1.159-4.532-0.528-9.433-2.264-13.359
			c-0.184-0.418-0.747-1.687-2.126-1.886c-0.511-0.088-0.93,0.017-1.198,0.088l-0.923,0.236c0.523-1.92,0.665-3.941,0.329-5.912
			c-0.04-0.236-0.125-0.722-0.479-1.205c-0.386-0.52-1.307-1.313-3.143-0.763l-4.177,1.25c-0.042-0.569-0.062-1.146-0.137-1.699
			c-0.096-0.702-0.256-1.444-0.783-2.112c-0.622-0.793-2.127-1.93-5.228-0.702c-2.331,0.935-5.007,2.156-7.167,4.144
			c-0.869,0.798-1.68,1.982-2.345,3.308c-0.486-1.233-1.24-1.95-2.24-2.104c-1.318-0.216-2.254,0.661-2.605,0.992
			c-10.816,10.143-15.302,26.525-11.165,40.764c1.071,3.686,2.5,6.323,4.43,8.302c-0.138,0.666-0.309,1.324-0.415,1.999
			c-2.519,2.406-4.537,5.303-6.114,8.503c-0.326-1.997-0.786-4.068-1.459-6.634c-1.537-5.868-4.191-10.909-7.702-14.654
			c1.873-3.728,1.598-7.848,1.329-11.833c-0.047-0.715-0.094-1.424-0.128-2.129c-0.29-5.989,0.523-11.911,2.414-17.597
			c0.181-0.543,0.081-1.141-0.266-1.596c-0.349-0.456-0.898-0.773-1.471-0.675c-3.636,0.206-6.7,2.953-9.102,8.162
			c-1.562,3.383-2.514,6.298-3.001,9.051c-5.63-5.875-13.902-9.181-22.039-8.532c-0.908,0.068-1.606,0.833-1.594,1.745
			c0.052,3.776,1.135,7.6,3.049,11.273c-3.32,1.303-6.043,4.12-7.153,7.514c-0.167,0.51-0.329,1.191-0.096,1.944
			c0.38,1.232,1.527,1.734,1.893,1.893c1.351,0.601,2.74,0.962,4.334,1.377l9.475,2.462c-2.494,1.27-4.945,2.787-7.309,4.594
			c-3.074,2.352-4.231,4.957-3.261,7.336c0.852,2.092,3.108,3.145,6.406,3.219c10.067-0.051,19.999-5.611,25.303-14.172
			c0.019-0.027,0.037-0.057,0.054-0.088c2.453,3.121,4.341,7.072,5.524,11.584c1.424,5.429,1.883,8.537,2.021,13.689
			c-0.385,1.81-0.69,3.639-0.985,5.466c-0.484,2.983-0.941,5.8-1.771,8.554c-1.292,4.295-3.614,8.419-6.715,11.928
			c-0.051,0.057-0.067,0.126-0.11,0.187l-91.669,91.669c-0.584-0.071-1.164-0.16-1.75-0.194c1.776-2.165,3.372-4.785,4.93-8.174
			c2.394-5.21,2.488-9.323,0.282-12.221c-0.346-0.456-0.894-0.753-1.468-0.678c-0.572,0.03-1.092,0.344-1.387,0.833
			c-3.094,5.139-7.064,9.606-11.8,13.278c-0.557,0.432-1.127,0.857-1.701,1.286c-3.201,2.389-6.509,4.855-8.127,8.706
			c-5.122-0.226-10.676,1.033-16.139,3.678c-2.171,1.056-4.203,2.288-6.165,3.583c1.508-3.395,2.463-6.939,2.661-10.551
			c0.439-0.513,0.825-1.066,1.235-1.599c0.297,0.02,0.591,0.047,0.891,0.047c2.5,0,5.181-0.678,8.311-2.095
			c13.509-6.117,23.036-20.181,23.709-34.994c0.022-0.479,0.079-1.758-0.938-2.618c-0.783-0.67-1.817-0.778-3.06-0.336
			c0.575-1.368,0.948-2.755,0.99-3.936c0.105-2.936-0.709-5.76-1.515-8.139c-1.073-3.162-2.927-3.536-3.938-3.513
			c-0.847,0.037-1.515,0.395-2.111,0.779c-0.469,0.304-0.919,0.663-1.378,1.001l-1.767-3.987c-0.773-1.751-1.979-1.927-2.613-1.893
			c-0.592,0.037-1.026,0.293-1.238,0.422c-1.713,1.022-3.155,2.445-4.273,4.091l-0.425-0.862c-0.115-0.229-0.305-0.614-0.688-0.941
			c-1.075-0.938-2.402-0.543-2.839-0.405c-4.112,1.235-8.932,3.143-11.617,6.971l-1.09-1.178c-0.467-0.509-1.248-1.36-2.472-1.582
			c-0.977-0.179-2.85-0.034-4.415,2.855c-5.284,9.728-6.467,19.986-3.243,28.141c1.318,3.33,3.318,6.269,5.255,9.114
			c0.648,0.952,1.297,1.9,1.918,2.865c2.423,3.762,4.012,7.079,3.887,11.037c0,0.013-0.002,0.027-0.002,0.04
			c-0.164,4.842-1.795,9.593-4.597,13.925c-0.322-1.157-0.761-2.33-1.208-3.452l-0.167-0.418
			c-3.536-9.013-7.324-17.563-14.737-23.097c-0.472-0.351-1.093-0.439-1.643-0.233c-0.552,0.209-0.96,0.682-1.081,1.259
			c-0.766,3.637,0.214,7.366,1.002,10.366c1.218,4.636,2.478,9.428,4.726,13.858c1.751,3.45,4.299,7.73,7.487,8.987
			c-1.682,1.999-3.376,4.056-4.825,6.311c-6.602,10.288-7.044,22.955-1.361,34.154l-0.967,0.965
			c-0.579-0.523-1.235-0.835-1.598-0.989c-7.136-3.037-17.811-5.999-28.148-2.858c-4.429,1.343-8.589,3.982-11.717,7.423
			c-1.053,1.159-2.348,2.779-3.395,4.579c-1.107-7.651-2.912-15.191-4.693-22.553c-0.148-0.619-0.297-1.255-0.447-1.879
			c0.204-0.014,0.418-0.03,0.69-0.068c1.939-0.253,4.005-1.151,5.854-1.771c7.73-2.602,15.145-6.141,22.022-10.528
			c5.627-3.587,10.985-7.832,14.697-13.377c1.557-2.325,2.819-5.347,1.551-7.84c-4.753,1.11-9.505,2.219-14.258,3.329
			c-5.672,1.324-11.41,2.671-16.601,5.311c-5.193,2.642-9.868,6.75-12.009,12.168c-1.284,3.251-1.579,6.764-2.553,10.101
			c-0.007,0.019-0.012,0.034-0.017,0.052c-0.825-3.47-1.635-6.968-2.323-10.452c-1.225-6.195-1.944-11.948-2.153-17.286
			c2.401,0.192,4.661-0.847,6.431-1.853c16.986-9.627,25.474-32.426,18.919-50.823c-0.196-0.543-0.65-0.955-1.211-1.097
			c-0.56-0.138-1.156,0.013-1.582,0.401c-7.098,6.485-15.144,13.834-20.034,23.063c-2.836,5.352-4.609,11.41-5.449,18.157
			c-0.898-1.935-1.905-3.833-2.828-5.564c-0.548-1.026-1.061-1.988-1.495-2.858c-5.534-11.074-12.667-21.163-21.202-29.984
			c-1.122-1.164-2.996-2.23-4.661-1.981c-0.992,0.145-1.795,0.715-2.261,1.613c-0.207,0.401-0.25,0.867-0.12,1.296
			c5.426,17.917,14.035,34.464,25.59,49.19c1.613,2.055,3.565,3.192,5.357,3.192c0.43,0,0.849-0.081,1.252-0.216
			c0.314,4.839,0.977,9.954,2.057,15.417c1.002,5.065,2.235,10.166,3.428,15.096c0.432,1.792,0.866,3.597,1.292,5.409
			c-6.367-9.013-14.799-16.539-24.615-21.889c-6.31-3.438-12.981-5.858-19.829-7.197c-0.002,0-0.002,0-0.002,0
			c-1.343-0.25-2.357,0.024-3.018,0.847c-0.466,0.577-0.865,1.599-0.138,3.175c3.04,6.597,7.597,12.421,12.006,17.819
			c4.668,5.716,9.745,11.682,15.965,16.304c4.314,3.206,10.912,7.123,17.846,7.592c0.268,0.017,0.526,0.027,0.773,0.027
			c2.009,0,3.278-0.585,4.137-1.302c0.58,3.703,1.011,7.422,1.176,11.142c0.145,3.305,0.062,6.61-0.186,9.902
			c-2.37-5.794-13.742-13.249-16.127-14.715c-0.337-0.207-0.855-0.376-1.06-0.037c-0.091,0.15-0.068,0.341-0.04,0.515
			c0.661,4.052,10.182,24.347,16.48,18.796c0.138-0.121,0.202-0.265,0.315-0.393c-0.341,2.706-0.769,5.404-1.377,8.071
			c-1.248,5.487-5.252,13.605-8.582,17.414l-11.977,11.977c-2.413-1.493-4.84-2.964-7.277-4.429
			c-0.538-0.322-1.09-0.661-1.631-0.987c0.12-0.147,0.24-0.292,0.385-0.493c1.119-1.535,1.876-3.599,2.681-5.323
			c3.362-7.204,5.866-14.825,7.428-22.643c1.279-6.396,1.925-13.051,0.58-19.434c-0.565-2.676-1.805-5.618-4.368-6.423
			c-2.404,4.096-4.808,8.193-7.212,12.289c-2.87,4.889-5.766,9.838-7.408,15.285s-1.928,11.528,0.378,16.719
			c1.378,3.103,3.589,5.692,5.237,8.633c-2.909-1.761-5.826-3.551-8.653-5.416c-5.073-3.347-9.507-6.749-13.32-10.224
			c1.741-1.556,2.519-3.86,3.007-5.78c4.689-18.501-5.375-39.991-22.437-47.904c-0.526-0.246-1.142-0.213-1.637,0.098
			c-0.494,0.304-0.801,0.837-0.818,1.421c-0.263,9.401-0.564,20.053,2.537,29.781c1.785,5.595,4.747,10.926,8.792,16.073
			c-1.881-0.66-3.799-1.22-5.556-1.733c-1.063-0.31-2.062-0.604-2.942-0.884c-11.322-3.648-23.039-5.497-34.825-5.497
			c-1.555,0-3.555,0.594-4.518,1.927c-0.584,0.806-0.734,1.775-0.42,2.73c0.14,0.425,0.44,0.783,0.839,0.989
			c15.969,8.378,33.123,13.585,50.985,15.478c0.395,0.044,0.776,0.064,1.149,0.064c2.534,0,4.505-0.972,5.341-2.632
			c3.524,3.049,7.469,6.04,11.923,8.976c4.165,2.747,8.508,5.355,12.707,7.872c2.19,1.314,4.368,2.642,6.541,3.98l-1.473,1.473
			c-0.324,0.324-0.506,0.763-0.506,1.221c0,0.459,0.182,0.898,0.506,1.222l67.345,67.346c-3.874,4.031-8.719,7.034-13.949,8.712
			c0.224-3.945-4.528-8.827-6.114-10.322c-3.919-3.702-9.068-5.682-14.109-5.686c-0.624,0.01-1.193,0.354-1.49,0.904
			c-0.297,0.547-0.277,1.211,0.054,1.738l4.014,6.421c1.701,2.72,3.46,5.53,5.991,7.791c0.203,0.181,0.488,0.407,0.808,0.644
			c-2.263-0.064-4.523-0.287-6.889-0.56c-1.471-0.167-2.944-0.304-4.417-0.428c-4.596-1.464-9.362-3.194-13.745-5.777
			c-4.022-2.365-7.309-5.257-9.645-8.463c0.034-0.01,0.069-0.02,0.103-0.03c9.677-2.774,17.73-10.821,20.517-20.495
			c0.909-3.148,0.429-5.648-1.356-7.042c-2.03-1.582-4.85-1.167-7.945,1.144c-2.382,1.783-4.508,3.732-6.408,5.785l0.213-10.013
			c0.029-1.397,0.059-2.841-0.15-4.316c-0.059-0.408-0.234-1.65-1.313-2.345c-0.665-0.425-1.365-0.472-1.891-0.432
			c-3.57,0.143-7.02,1.999-9.178,4.84c-3.013-2.841-6.401-4.925-10.018-6.001c-0.874-0.246-1.8,0.203-2.114,1.06
			c-2.819,7.661-1.901,16.517,2.219,23.534c-2.784-0.275-5.848-0.154-9.529,0.423c-5.664,0.898-9.141,3.098-10.33,6.539
			c-0.187,0.54-0.094,1.137,0.248,1.596c0.342,0.459,0.887,0.722,1.463,0.692c5.998-0.28,11.916,0.557,17.595,2.463
			c0.665,0.226,1.333,0.462,2.004,0.702c3.766,1.343,7.656,2.733,11.758,1.944c2.645,4.393,6.775,8.317,12.005,11.391
			c2.08,1.225,4.23,2.232,6.391,3.146c-3.656,0.626-7.133,1.797-10.247,3.636c-0.678-0.083-1.358-0.098-2.038-0.145
			c-1.38-2.397-3.529-4.488-6.784-6.519c-12.578-7.855-29.563-7.994-42.266-0.344c-0.412,0.25-1.507,0.908-1.663,2.23
			c-0.12,1.021,0.366,1.937,1.419,2.737c-1.458,0.278-2.819,0.736-3.825,1.356c-2.504,1.542-4.405,3.783-5.935,5.773
			c-2.035,2.639-1.341,4.403-0.746,5.22c0.57,0.783,1.414,1.151,1.822,1.329c0.513,0.223,1.061,0.398,1.594,0.591l-2.338,3.681
			c-1.031,1.616-0.515,2.723-0.12,3.232c0.361,0.469,0.817,0.685,1.031,0.786c1.798,0.857,3.777,1.291,5.762,1.311l-0.467,0.805
			c-0.127,0.223-0.341,0.594-0.407,1.1c-0.182,1.407,0.884,2.295,1.238,2.588c3.307,2.74,7.563,5.702,12.238,5.817l-0.378,1.559
			c-0.162,0.672-0.435,1.799,0.056,2.922c0.361,0.83,1.351,2.136,4.005,2.136c0.256,0,0.528-0.01,0.816-0.037
			c11.027-0.992,20.22-5.692,25.224-12.896c2.041-2.939,3.378-6.236,4.67-9.421c0.434-1.07,0.867-2.136,1.326-3.189
			c1.792-4.11,3.675-7.275,7.045-9.364c4.13-2.554,8.996-3.828,14.158-3.901c-0.784,0.913-1.52,1.93-2.207,2.929l-0.251,0.361
			c-5.544,7.94-10.561,15.829-11.059,25.064c-0.03,0.591,0.24,1.154,0.719,1.498c0.297,0.213,0.651,0.324,1.007,0.324
			c0.216,0,0.434-0.04,0.639-0.121c3.455-1.377,6.016-4.262,8.071-6.58c3.182-3.58,6.472-7.282,8.916-11.611
			c1.905-3.374,4.041-7.864,3.314-11.216c2.603,0.294,5.262,0.567,7.948,0.52c9.205-0.159,18.354-4.214,25.003-10.911
			c1.309,4.597,2.752,9.183,4.194,13.637c0.197,0.607,0.393,1.233,0.591,1.844c-0.203,0.03-0.415,0.064-0.682,0.12
			c-1.915,0.4-3.907,1.451-5.704,2.212c-7.511,3.179-14.637,7.27-21.161,12.164c-5.338,4.003-10.359,8.643-13.64,14.453
			c-1.377,2.435-2.406,5.544-0.953,7.935c4.656-1.466,9.311-2.932,13.966-4.398c5.556-1.751,11.174-3.528,16.151-6.556
			c4.979-3.027,9.328-7.477,11.052-13.041c1.034-3.339,1.063-6.863,1.782-10.264c0.003-0.02,0.007-0.035,0.012-0.056
			c1.085,3.398,2.158,6.824,3.109,10.246c1.69,6.087,2.843,11.769,3.455,17.077c-2.392,0.068-4.584,1.195-6.273,2.328
			c-16.207,10.892-22.941,34.269-15.014,52.115c0.236,0.53,0.72,0.904,1.291,1.002c0.096,0.017,0.192,0.024,0.288,0.024
			c0.472,0,0.93-0.192,1.259-0.543c6.586-7.005,14.052-14.944,18.229-24.517c2.423-5.551,3.732-11.727,4.057-18.518
			c1.044,1.866,2.193,3.683,3.248,5.341c0.621,0.979,1.205,1.9,1.702,2.73c6.355,10.622,14.233,20.141,23.412,28.293
			c0,0,0,0,0.002,0c1.022,0.908,2.58,1.704,4.025,1.704c0.263,0,0.523-0.027,0.774-0.084c0.977-0.219,1.733-0.85,2.129-1.778
			c0.176-0.415,0.184-0.884,0.02-1.302c-6.765-17.455-16.605-33.304-29.243-47.108c-2.186-2.387-4.786-3.324-6.816-2.467
			c-0.68-4.802-1.728-9.853-3.219-15.221c-1.382-4.977-3-9.967-4.562-14.796c-0.909-2.804-1.826-5.66-2.71-8.532l152.438,152.439
			c0.066,0.133,0.122,0.272,0.224,0.388c3.103,3.509,5.424,7.633,6.716,11.928c0.828,2.757,1.287,5.574,1.77,8.557
			c0.297,1.827,0.602,3.653,0.987,5.463c-0.138,5.152-0.599,8.26-2.021,13.689c-1.184,4.515-3.072,8.463-5.524,11.584
			c-0.019-0.03-0.035-0.061-0.056-0.091c-5.301-8.554-15.231-14.118-25.303-14.172c-0.017,0-0.034,0-0.051,0
			c-3.251,0-5.507,1.144-6.354,3.222c-0.972,2.379,0.187,4.984,3.261,7.336c2.364,1.807,4.815,3.322,7.307,4.592l-9.726,2.527
			c-1.341,0.351-2.728,0.712-4.083,1.309c-0.376,0.169-1.52,0.678-1.891,1.896c-0.233,0.753-0.071,1.434,0.094,1.944
			c1.11,3.395,3.835,6.212,7.155,7.514c-1.915,3.673-2.996,7.497-3.049,11.273c-0.013,0.911,0.685,1.677,1.594,1.745
			c0.665,0.054,1.328,0.078,1.994,0.078c7.479,0,14.872-3.227,20.043-8.621c0.488,2.758,1.439,5.674,3.001,9.06
			c2.401,5.207,5.463,7.957,9.102,8.166c0.034,0.003,0.066,0.003,0.1,0.003c0.536,0,1.043-0.25,1.372-0.678
			c0.348-0.452,0.449-1.049,0.268-1.596c-1.893-5.689-2.704-11.611-2.416-17.6c0.036-0.702,0.083-1.414,0.13-2.126
			c0.268-3.985,0.543-8.105-1.33-11.833c3.509-3.745,6.163-8.786,7.702-14.654c0.672-2.566,1.134-4.636,1.459-6.634
			c1.576,3.201,3.595,6.097,6.114,8.503c0.105,0.675,0.275,1.333,0.415,1.999c-1.932,1.976-3.361,4.614-4.432,8.302
			c-4.137,14.239,0.351,30.621,11.165,40.768c0.315,0.293,1.095,1.022,2.193,1.022c0.132,0,0.267-0.01,0.408-0.03
			c1.011-0.164,1.761-0.879,2.246-2.107c0.665,1.324,1.474,2.509,2.343,3.308c2.166,1.991,4.84,3.212,7.169,4.14
			c0.984,0.395,1.809,0.55,2.495,0.55c1.471,0,2.308-0.705,2.733-1.248c0.526-0.668,0.687-1.41,0.781-2.116
			c0.076-0.552,0.095-1.129,0.137-1.696l4.174,1.247c0.442,0.135,0.83,0.189,1.171,0.189c1.08,0,1.685-0.557,1.976-0.948
			c0.354-0.472,0.439-0.968,0.481-1.208c0.336-1.967,0.194-3.988-0.329-5.907l0.928,0.238c0.174,0.044,0.462,0.115,0.813,0.115
			c0.111,0,0.228-0.007,0.349-0.024c1.414-0.206,1.974-1.481,2.156-1.896c1.736-3.928,3.425-8.827,2.262-13.359l1.608-0.061
			c0.692-0.027,1.852-0.071,2.801-0.85c0.766-0.628,1.878-2.139,0.705-5.21c-3.953-10.339-10.976-17.907-19.27-20.765
			c-3.389-1.167-6.929-1.556-10.35-1.933c-1.141-0.125-2.281-0.253-3.413-0.405c-4.432-0.607-7.983-1.559-10.902-4.214
			c-0.017-0.017-0.035-0.034-0.054-0.051c-4.103-3.766-6.951-8.874-8.231-14.776c-0.397-1.829-0.697-3.678-0.997-5.527
			c-0.481-2.963-0.979-6.026-1.873-9.002c-0.17-0.567-0.408-1.119-0.611-1.679l32.091,32.091c0.324,0.324,0.764,0.506,1.221,0.506
			c0.459,0,0.898-0.182,1.221-0.506l35.642-35.642c-0.371,0.784-0.766,1.557-1.095,2.362c-2.291,5.618-3.194,11.243-2.632,16.341
			c-3.739,1.863-5.989,5.321-8.167,8.668c-0.39,0.601-0.778,1.195-1.171,1.778c-3.364,4.967-7.568,9.215-12.495,12.63
			c-0.471,0.327-0.749,0.864-0.744,1.438c0.007,0.574,0.295,1.107,0.773,1.424c1.291,0.854,2.77,1.282,4.435,1.282
			c2.254,0,4.842-0.783,7.744-2.349c3.28-1.77,5.788-3.531,7.832-5.441c0.982,8.074,5.623,15.672,12.51,20.051
			c0.287,0.182,0.607,0.27,0.924,0.27c0.536,0,1.061-0.25,1.399-0.709c2.232-3.065,3.666-6.794,4.334-10.902
			c1.056,0.294,2.136,0.493,3.232,0.493c2.478,0,4.962-0.736,6.991-2.159c0.282-0.196,0.941-0.658,1.242-1.491
			c0.435-1.208-0.177-2.301-0.378-2.656c-0.729-1.306-1.628-2.433-2.499-3.523l-6.268-7.864c2.765,0.484,5.645,0.749,8.628,0.741
			c3.869-0.037,6.359-1.424,7.01-3.911c0.575-2.186-0.56-4.464-3.192-6.418c-8.083-6.003-19.365-7.514-28.742-3.85
			c-0.034,0.013-0.068,0.027-0.101,0.04c-0.088-3.968,0.771-8.26,2.534-12.583c2.063-5.058,5.061-9.611,8.024-13.794
			l148.999-148.999c-0.992,3.165-2.031,6.328-3.077,9.434c-1.67,4.96-3.396,10.092-4.796,15.133
			c-1.492,5.368-2.541,10.42-3.219,15.221c-2.031-0.857-4.629,0.071-6.818,2.463c-12.638,13.807-22.477,29.659-29.243,47.111
			c-0.162,0.418-0.155,0.887,0.022,1.302c0.396,0.928,1.152,1.559,2.129,1.778c0.251,0.057,0.511,0.084,0.773,0.084
			c1.448,0,3.005-0.8,4.027-1.707c9.178-8.145,17.055-17.664,23.414-28.29c0.496-0.83,1.08-1.751,1.701-2.73
			c1.055-1.658,2.203-3.477,3.248-5.341c0.326,6.789,1.635,12.964,4.058,18.514c4.181,9.583,11.644,17.516,18.229,24.517
			c0.331,0.351,0.786,0.543,1.259,0.543c0.096,0,0.194-0.007,0.29-0.024c0.57-0.098,1.055-0.472,1.289-1.002
			c7.928-17.843,1.193-41.22-15.014-52.112c-1.689-1.134-3.874-2.375-6.273-2.332c0.614-5.308,1.766-10.986,3.457-17.074
			c0.93-3.345,2.019-6.737,3.135-10.109c0.702,3.378,0.741,6.87,1.766,10.184c1.724,5.564,6.075,10.015,11.052,13.041
			c4.977,3.027,10.595,4.805,16.153,6.554c4.655,1.466,9.31,2.932,13.964,4.398c1.453-2.391,0.424-5.498-0.951-7.935
			c-3.283-5.81-8.304-10.448-13.642-14.453c-6.524-4.893-13.649-8.986-21.16-12.164c-1.798-0.759-3.789-1.812-5.704-2.212
			c-0.229-0.047-0.403-0.073-0.585-0.101c0.24-0.717,0.476-1.448,0.715-2.158c1.505-4.467,2.998-9.055,4.317-13.618
			c6.619,6.485,15.614,10.396,24.659,10.551c2.691,0.059,5.346-0.223,7.946-0.518c-0.727,3.352,1.409,7.84,3.315,11.214
			c2.443,4.329,5.733,8.031,8.915,11.611c2.057,2.318,4.616,5.203,8.071,6.58c0.208,0.081,0.424,0.121,0.639,0.121
			c0.356,0,0.71-0.111,1.009-0.324c0.478-0.344,0.749-0.908,0.717-1.498c-0.498-9.235-5.515-17.124-11.059-25.064l-0.25-0.361
			c-0.688-0.997-1.422-2.016-2.208-2.927c5.163,0.073,10.03,1.341,14.158,3.899c3.371,2.089,5.255,5.254,7.047,9.364
			c0.459,1.053,0.893,2.119,1.324,3.189c1.292,3.185,2.63,6.482,4.672,9.421c5.002,7.204,14.197,11.904,25.222,12.896
			c0.289,0.027,0.56,0.037,0.817,0.037c2.654,0,3.646-1.306,4.007-2.136c0.489-1.124,0.216-2.251,0.054-2.922l-0.378-1.559
			c4.677-0.115,8.932-3.077,12.243-5.817c0.349-0.294,1.417-1.181,1.235-2.585c-0.066-0.51-0.28-0.881-0.41-1.107l-0.466-0.801
			c1.984-0.02,3.963-0.454,5.76-1.307c0.218-0.105,0.671-0.321,1.029-0.786c0.398-0.513,0.914-1.62-0.115-3.233l-2.34-3.685
			c0.535-0.194,1.083-0.37,1.598-0.594c0.405-0.175,1.248-0.543,1.82-1.329c0.594-0.813,1.287-2.578-0.746-5.217
			c-1.53-1.991-3.432-4.231-5.937-5.773c-1.005-0.619-2.369-1.075-3.828-1.353c1.056-0.8,1.542-1.717,1.422-2.74
			c-0.155-1.323-1.252-1.981-1.663-2.23c-12.702-7.649-29.687-7.514-42.264,0.344c-3.256,2.031-5.405,4.122-6.784,6.519
			c-0.68,0.047-1.362,0.062-2.038,0.145c-3.119-1.839-6.598-3.006-10.258-3.631c2.165-0.916,4.317-1.925,6.399-3.151
			c5.23-3.074,9.36-6.998,12.007-11.391c4.103,0.783,7.992-0.597,11.756-1.944c0.671-0.24,1.34-0.476,2.004-0.702
			c5.679-1.906,11.599-2.73,17.595-2.463c0.575,0.03,1.12-0.233,1.463-0.692c0.342-0.459,0.435-1.056,0.25-1.596
			c-1.191-3.442-4.667-5.642-10.332-6.539c-3.68-0.579-6.743-0.702-9.527-0.425c4.118-7.015,5.038-15.869,2.219-23.532
			c-0.315-0.857-1.24-1.316-2.114-1.06c-3.619,1.076-7.005,3.16-10.02,6.001c-2.158-2.841-5.606-4.695-9.169-4.837
			c-0.535-0.041-1.235,0.003-1.898,0.429c-1.08,0.695-1.255,1.937-1.313,2.345c-0.211,1.474-0.181,2.919-0.15,4.316l0.213,10.013
			c-1.901-2.053-4.027-4.002-6.409-5.785c-3.094-2.315-5.915-2.716-7.946-1.144c-1.782,1.394-2.262,3.894-1.355,7.042
			c2.787,9.674,10.841,17.721,20.52,20.495c0.034,0.01,0.068,0.02,0.101,0.03c-2.338,3.206-5.625,6.097-9.647,8.463
			c-4.383,2.583-9.149,4.312-13.743,5.777c-1.475,0.125-2.947,0.261-4.417,0.428c-2.365,0.273-4.624,0.484-6.883,0.557
			c0.317-0.238,0.601-0.462,0.801-0.641c2.531-2.261,4.29-5.071,5.993-7.794l4.014-6.418c0.331-0.526,0.351-1.191,0.052-1.738
			c-0.297-0.55-0.865-0.894-1.488-0.904c-0.101,0-0.201-0.003-0.302-0.003c-4.95,0-9.968,2.065-13.807,5.689
			c-1.588,1.495-6.342,6.379-6.114,10.322c-5.23-1.679-10.077-4.682-13.951-8.712l67.346-67.346c0.673-0.675,0.673-1.768,0-2.443
			l-1.473-1.473c2.171-1.338,4.349-2.666,6.539-3.98c4.199-2.517,8.544-5.125,12.707-7.872c4.454-2.936,8.4-5.927,11.925-8.976
			c0.837,1.664,2.806,2.632,5.34,2.632c0.371,0,0.756-0.02,1.147-0.064c17.863-1.893,35.018-7.099,50.986-15.478
			c0.398-0.206,0.7-0.563,0.84-0.989c0.312-0.955,0.164-1.923-0.422-2.73C961.199,569.229,959.2,568.635,957.646,568.635z
			 M897.689,501.731c-0.045-0.003-0.152-0.024-0.275-0.091l-0.307-1.572L897.689,501.731z M863.001,486.425
			c-1.323,1.687-2.468,1.984-2.817,1.842c-0.051-0.018-0.106-0.081-0.162-0.142c6.168-12.517,13.269-24.706,21.133-36.239
			l0.429-0.628c1.707-2.499,3.406-5.072,4.739-7.806C880.992,459.003,873.184,473.448,863.001,486.425z M864.619,472.908
			c0.562-1.056,1.092-2.048,1.537-2.939c5.289-10.587,12.097-20.23,20.21-28.698c-1.345,3.373-3.433,6.482-5.497,9.502l-0.428,0.628
			c-7.732,11.337-14.718,23.319-20.821,35.617c-0.046-0.309-0.074-0.661-0.063-1.098C859.66,482.207,862.41,477.052,864.619,472.908
			z M850.239,460.309c2.578,4.864,4.208,10.391,5.017,16.546c-4.187-8.871-8.29-17.834-12.279-26.81
			C845.757,453.213,848.265,456.585,850.239,460.309z M832.928,440.009c2.799,2.571,5.579,5.206,8.188,7.987
			c4.668,10.563,9.509,21.148,14.455,31.569c0.078,0.887,0.099,1.82,0.142,2.735c-1.677-3.848-3.948-7.614-6.182-11.295
			c-0.859-1.417-1.702-2.811-2.489-4.171c-1.677-2.902-3.106-6.01-4.489-9.016c-0.958-2.079-1.947-4.231-3.015-6.307
			c-1.994-3.88-4.336-7.619-6.657-11.287C832.899,440.154,832.909,440.08,832.928,440.009z M851.088,484.141
			c-11.275-6.392-18.454-19.107-19.299-32.042c1.048,3.923,2.268,7.833,4.032,11.526c1.991,4.171,4.801,8.368,8.589,12.839
			c2.556,3.015,5.382,5.807,8.312,8.483C852.151,484.701,851.591,484.424,851.088,484.141z M854.644,485.528
			c-3.41-2.993-6.654-6.177-9.574-9.623c-3.74-4.41-6.511-8.55-8.469-12.65c-2.247-4.707-3.631-9.795-4.869-14.818
			c0.067-2.362,0.361-4.705,0.881-7.007c2.148,3.403,4.307,6.88,6.158,10.48c1.058,2.055,2.045,4.198,2.998,6.269
			c1.39,3.023,2.829,6.151,4.526,9.087c0.788,1.367,1.635,2.763,2.499,4.184c2.705,4.461,5.414,9.048,7.069,13.718
			c0,0.115,0.017,0.218,0.017,0.332C855.479,485.58,855.065,485.58,854.644,485.528z M896.294,501.997
			c-2.866,5.81-7.017,11.098-11.042,16.028c-4.53,5.547-9.446,11.331-15.348,15.717c-3.943,2.929-9.922,6.505-16.018,6.917
			c-1.012,0.081-2.311-0.01-2.758-0.752c-0.042-0.071-0.029-0.209-0.062-0.294c0.445,0.052,0.891,0.098,1.338,0.098
			c2.596,0,5.21-0.891,7.494-2.605c7.164-5.368,13.551-11.864,19.727-18.143c3.015-3.067,5.281-6.202,7.472-9.235
			c1.594-2.205,3.236-4.467,5.168-6.71C893.602,502.64,894.943,502.288,896.294,501.997z M853.013,532.639
			c6.247-10.008,15.096-18.319,25.587-24.035c1.993-1.085,4.032-2.025,6.092-2.893c-12.262,8.203-23.468,18.207-32.953,29.449
			C852.082,534.324,852.492,533.474,853.013,532.639z M851.068,537.295c10.565-12.871,23.404-24.178,37.515-33.091
			c0.737-0.258,1.476-0.51,2.22-0.739c-1.591,1.932-3.037,3.865-4.405,5.76c-2.173,3.003-4.419,6.111-7.388,9.131
			c-6.155,6.259-12.518,12.728-19.63,18.062c-2.588,1.942-5.615,2.694-8.513,2.254C850.869,538.27,850.965,537.784,851.068,537.295z
			 M666.641,349.695c1.55,0.013,3.448,0.371,3.701,1.333c0.218,0.833-0.844,1.974-1.911,2.767c-7.131,5.294-17.08,6.63-25.367,3.428
			c1.198-1.007,2.519-1.888,3.907-2.694c0.295-0.157,0.594-0.332,0.903-0.54C653.142,351.172,659.595,349.728,666.641,349.695z
			 M654.866,345.045c1.043-4.066,1.424-8.034,1.232-11.768c2.516-0.894,5.439-0.609,7.651,0.714
			c-0.587,1.029-1.375,2.018-2.138,2.973l-7,8.781C654.698,345.51,654.81,345.266,654.866,345.045z M652.538,338.421
			c-0.641,2.222-1.324,4.44-2.119,6.607c-0.386,1.053-0.813,2.122-1.33,3.146c-0.948,1.132-2.009,2.164-2.957,2.839
			c1.049-2.139,1.775-4.363,2.303-6.323c1.723-6.381,2.524-12.918,2.482-19.496C652.46,329.029,653.024,333.556,652.538,338.421z
			 M646.534,325.042c0.928-0.984,1.906-1.917,2.991-2.726c0.174,0.288,0.309,0.607,0.469,0.908
			c0.241,7.167-0.518,14.298-2.392,21.244c-0.621,2.301-1.532,4.964-2.932,7.395c-0.594,0.363-1.191,0.72-1.755,1.119
			c0.014-0.972,0.01-1.94-0.089-2.905c-0.118-1.146-0.427-2.291-0.818-3.43c0.651-5.731,1.636-11.45,2.979-17.045
			C645.364,328.029,645.832,326.451,646.534,325.042z M639.438,354.587c-2.649-1.515-4.456-4.295-6.362-7.228
			c-0.4-0.614-0.798-1.228-1.203-1.826c-2.925-4.319-6.443-8.128-10.489-11.371c1.577,0.088,3.484,0.732,5.701,1.93
			c3.599,1.94,6.188,3.823,8.149,5.918c2.38,2.544,3.857,5.537,4.155,8.422c0.103,0.985,0.081,1.977,0.062,2.969
			C639.444,353.798,639.439,354.192,639.438,354.587z M639.809,342.231c-0.14-5.412,1.716-10.776,4.955-15.091
			c-0.234,0.759-0.439,1.52-0.616,2.259c-1.223,5.092-2.168,10.285-2.823,15.498C640.9,343.987,640.396,343.096,639.809,342.231z
			 M617.868,298.563c1.257,3.217,2.138,6.845,1.034,9.897l-1.915-0.073c-1.176-0.044-2.403-0.078-3.646-0.086
			c0.518-0.648,0.948-1.35,1.329-1.979C616.223,303.748,617.608,301.202,617.868,298.563z M617.051,297.37
			c0.12,2.851-1.402,5.655-3.121,8.507c-0.482,0.801-1.06,1.711-1.783,2.445c-2.723,0.042-5.515,0.288-8.186,1.186
			c-0.982,0.329-1.969,0.769-2.969,1.285c1.849-2.429,4.375-4.417,6.789-6.104c0.827-0.577,1.64-1.107,2.429-1.623
			C612.719,301.426,615.101,299.871,617.051,297.37z M613.021,289.313c0.135,1.854-0.245,3.739-1.092,5.397l-1.937,0.494
			c-0.779-1.309-1.092-2.892-1.232-4.623L613.021,289.313z M616.047,297.164c-1.788,2.163-3.899,3.602-6.308,5.176
			c-0.8,0.523-1.62,1.056-2.455,1.64c-2.942,2.057-6.05,4.552-7.983,7.771c-0.817,0.503-1.642,1.046-2.49,1.68
			c-0.675,0.504-1.301,1.063-1.94,1.608c0.172-0.886,0.329-1.77,0.449-2.662c0.002-0.008,0.007-0.013,0.008-0.022
			c0.911-4.211,1.966-8.166,4.834-10.291c1.613-1.198,3.742-1.741,5.802-2.264L616.047,297.164z M594.651,296.223
			c-0.059-2.102,1.394-5.635,2.882-7.002c1.75-1.609,4.073-2.662,6.111-3.479c0.817-0.327,1.247-0.317,1.206-0.408
			c0.02,0.044,0.056,0.159,0.098,0.476c0.137,1.009,0.189,2.052,0.245,3.091c0.13,2.435,0.311,4.921,1.358,7.184l-1.443,0.368
			c-2.271,0.577-4.845,1.232-7.005,2.838c-1.016,0.751-1.849,1.655-2.548,2.642c-0.175-1.918-0.493-3.82-0.904-5.704
			C594.651,296.227,594.651,296.225,594.651,296.223z M598.881,316.199c2.195-1.64,4.214-2.757,6.178-3.418
			c2.482-0.833,5.153-1.036,7.845-1.036c1.318,0,2.642,0.047,3.951,0.098l7.109,0.27c0.175,0.01,0.643,0.024,0.682-0.013
			c0.002,0.003,0.115,0.378-0.272,1.387c-3.587,9.384-9.844,16.21-17.166,18.73c-3.022,1.039-6.21,1.394-9.586,1.765
			c-1.178,0.132-2.354,0.26-3.523,0.422c-3.427,0.469-6.414,1.137-9.097,2.527C587.132,328.71,592.048,321.31,598.881,316.199z
			 M590.088,319.826c-0.003,0.008,0,0.017-0.003,0.027c-2.407,2.863-4.43,6.033-5.986,9.433c-0.373-6.004,1.151-13.283,2.649-19.265
			c0.429-1.711,0.867-3.388,1.301-5.051c0.941-3.604,1.793-7.109,2.554-10.701C593.001,302.611,592.856,311.569,590.088,319.826z
			 M590.108,292.65c-0.815,4.11-1.829,8.014-2.897,12.103c-0.434,1.663-0.872,3.344-1.302,5.058
			c-1.503,6.006-3.059,13.325-2.706,19.429c-2.06-6.293-2.338-13.126-0.753-19.581c0.855-3.489,2.322-7.18,4.613-11.621
			c0.948-1.841,1.966-3.668,3.025-5.454C590.096,292.606,590.101,292.628,590.108,292.65z M580.156,328.673
			c-3.575-12.306-0.054-26.319,8.854-35.801c-0.923,1.582-1.879,3.148-2.715,4.768c-2.323,4.505-3.811,8.257-4.685,11.81
			c-1.795,7.322-1.227,15.096,1.539,22.091c-0.287,0.737-0.535,1.485-0.778,2.237C581.502,332.425,580.768,330.777,580.156,328.673z
			 M554.996,315.482c0.052,1.117,0.211,2.193,0.442,3.239c-3.686-3.823-7.526-7.518-11.611-10.9
			c-0.584-0.484-1.203-0.968-1.846-1.436C547.161,307.895,551.861,311.07,554.996,315.482z M535.324,305.384
			c1.338,0,2.666,0.157,3.983,0.385c1.407,0.705,2.723,1.687,3.968,2.72c4.471,3.702,8.668,7.756,12.65,11.979
			c0.364,1.097,0.796,2.151,1.367,3.101c0.498,0.83,1.076,1.609,1.67,2.375c-0.73,0.022-1.464,0.093-2.2,0.165
			c-2.537-1.103-4.803-2.71-6.657-4.16c-5.665-4.43-10.555-9.681-14.659-15.557c-0.052-0.336-0.135-0.671-0.17-1.007
			C535.292,305.384,535.309,305.384,535.324,305.384z M555.164,326.304c-1.149,0.025-2.583-0.159-3.993-0.488
			c-1.039-0.511-2.033-1.117-2.983-1.733c-1.945-1.26-3.821-2.622-5.662-4.012c-3.308-3.602-5.574-7.56-6.639-11.553
			c3.912,5.286,8.479,10.038,13.686,14.111C551.164,323.873,553.055,325.225,555.164,326.304z M534.367,324.344
			c-1.13-0.294-2.205-0.574-3.354-1.056c0.924-2.468,3.062-4.414,5.579-5.195c2.087,3.104,4.775,6.048,8.049,8.677
			c0.172,0.138,0.383,0.267,0.584,0.397L534.367,324.344z M539.041,341.907c-1.324,0.176-2.865-0.267-3.189-1.066
			c-0.376-0.921,0.928-2.345,2.159-3.286c5.637-4.312,11.747-6.97,17.718-7.833c0.543-0.032,1.046-0.098,1.491-0.206
			c0.893-0.084,1.78-0.13,2.659-0.13c0.506,0,1.009,0.013,1.51,0.04C556.69,336.967,547.925,341.863,539.041,341.907z
			 M563.328,313.361c0.035,0.722,0.084,1.454,0.133,2.19c0.234,3.489,0.456,6.796-0.754,9.593c-0.236-0.314-0.478-0.624-0.719-0.935
			c-0.609-0.783-1.223-1.566-1.733-2.416c-1.495-2.493-2.109-5.77-1.733-9.232c0.312-2.855,1.255-5.912,2.968-9.627
			c1.056-2.288,2.193-3.945,3.403-4.964C563.603,302.988,563.077,308.151,563.328,313.361z M349.78,488.267
			c-0.348,0.138-1.495-0.162-2.816-1.842c-10.185-12.977-17.993-27.422-23.321-42.973c1.331,2.735,3.03,5.308,4.739,7.806
			l0.427,0.628c7.864,11.533,14.965,23.723,21.134,36.239C349.888,488.187,349.831,488.249,349.78,488.267z M350.345,487.017
			c-6.104-12.297-13.089-24.279-20.821-35.617l-0.43-0.628c-2.063-3.02-4.152-6.129-5.495-9.502
			c8.112,8.468,14.921,18.111,20.208,28.698c0.447,0.891,0.975,1.883,1.539,2.939c2.208,4.144,4.957,9.299,5.06,13.011
			C350.418,486.356,350.391,486.709,350.345,487.017z M358.877,484.141c-0.506,0.287-1.068,0.563-1.643,0.811
			c2.934-2.677,5.761-5.471,8.319-8.488c3.789-4.471,6.598-8.668,8.589-12.839c1.765-3.693,2.984-7.604,4.034-11.526
			C377.329,465.034,370.152,477.748,358.877,484.141z M359.724,460.309c1.974-3.723,4.483-7.096,7.261-10.264
			c-3.988,8.976-8.09,17.939-12.279,26.81C355.518,470.7,357.146,465.173,359.724,460.309z M354.394,479.565
			c4.945-10.421,9.787-21.006,14.455-31.569c2.607-2.779,5.387-5.416,8.186-7.987c0.018,0.071,0.029,0.145,0.049,0.218
			c-2.311,3.646-4.658,7.393-6.659,11.285c-1.066,2.075-2.057,4.225-3.013,6.307c-1.383,3.006-2.813,6.114-4.491,9.016
			c-0.784,1.36-1.628,2.753-2.488,4.171c-2.234,3.681-4.503,7.447-6.182,11.295C354.295,481.386,354.317,480.453,354.394,479.565z
			 M354.102,485.168c1.655-4.67,4.363-9.257,7.069-13.718c0.862-1.421,1.709-2.818,2.499-4.184c1.697-2.936,3.136-6.064,4.527-9.087
			c0.953-2.072,1.939-4.214,2.996-6.269c1.846-3.59,4.002-7.062,6.158-10.479c0.521,2.299,0.813,4.643,0.882,7.005
			c-1.238,5.023-2.622,10.111-4.871,14.818c-1.959,4.1-4.729,8.24-8.468,12.65c-2.922,3.448-6.17,6.634-9.579,9.627
			c-0.42,0.052-0.833,0.051-1.232-0.03C354.085,485.386,354.101,485.283,354.102,485.168z M331.363,508.604
			c10.49,5.716,19.339,14.027,25.587,24.035c0.523,0.835,0.931,1.685,1.274,2.521c-9.487-11.243-20.691-21.247-32.954-29.452
			C327.329,506.578,329.371,507.517,331.363,508.604z M358.835,539.907c-0.447,0.742-1.744,0.823-2.757,0.752
			c-6.096-0.412-12.075-3.988-16.018-6.917c-5.903-4.387-10.819-10.17-15.348-15.717c-3.982-4.876-8.085-10.099-11.02-16.024
			c1.343,0.289,2.677,0.639,4.005,1.016c1.932,2.244,3.573,4.505,5.169,6.711c2.19,3.033,4.456,6.168,7.471,9.235
			c6.178,6.279,12.564,12.775,19.727,18.143c2.284,1.714,4.898,2.605,7.496,2.605c0.447,0,0.892-0.046,1.336-0.098
			C358.865,539.698,358.879,539.836,358.835,539.907z M350.583,536.418c-7.111-5.335-13.475-11.803-19.628-18.062
			c-2.969-3.02-5.217-6.128-7.388-9.131c-1.37-1.896-2.816-3.83-4.408-5.763c0.744,0.229,1.481,0.481,2.218,0.739
			c14.113,8.915,26.953,20.223,37.52,33.094c0.103,0.489,0.199,0.975,0.199,1.375C356.198,539.107,353.171,538.36,350.583,536.418z
			 M287.694,533.735c0.035,0.02,0.069,0.046,0.105,0.068c0.968,4.086,1.981,8.26,3.327,12.313c0.719,2.163,1.54,4.322,2.337,6.411
			c1.149,3.017,2.337,6.138,3.219,9.293c0.413,1.474,0.808,3.01,1.211,4.575c1.06,4.122,2.188,8.304,3.75,12.139
			c-0.645-0.695-1.255-1.397-1.852-2.1c-3.86-10.497-7.901-21.037-12.043-31.45C287.564,541.241,287.6,537.472,287.694,533.735z
			 M290.142,559.622c-1.22-3.826-1.866-7.783-2.205-11.786c3.474,8.785,6.865,17.634,10.138,26.481
			C294.412,569.59,291.765,564.711,290.142,559.622z M286.086,577.418c0.908,0.294,1.935,0.594,3.03,0.914
			c4.326,1.262,9.709,2.838,12.328,5.281c0.282,0.263,0.501,0.508,0.677,0.73c-12.503-4.054-25.379-7.283-38.316-9.554l-0.729-0.128
			c-3.411-0.596-6.904-1.23-10.089-2.544C264.188,572.185,275.321,573.951,286.086,577.418z M302.634,585.634
			c-0.144,0.317-1.083,0.891-3.064,0.688c-15.601-1.653-30.636-5.93-44.796-12.665c2.657,0.845,5.426,1.378,8.154,1.854l0.727,0.128
			c13.17,2.311,26.28,5.608,38.993,9.775C302.654,585.501,302.657,585.584,302.634,585.634z M304.498,579.787
			c-0.238,0.338-0.506,0.638-0.818,0.874c-0.09-0.09-0.169-0.179-0.258-0.268c-2.087-4.321-3.432-9.311-4.692-14.214
			c-0.405-1.569-0.801-3.115-1.216-4.592c-0.892-3.195-2.089-6.333-3.244-9.367c-0.791-2.082-1.611-4.231-2.323-6.374
			c-1.24-3.737-2.192-7.589-3.096-11.38c1.942,1.213,3.762,2.618,5.441,4.198c2.608,4.25,5.159,8.643,6.885,13.377
			c1.52,4.171,2.526,8.935,3.07,14.556C304.67,570.972,304.703,575.39,304.498,579.787z M305.486,577.698
			c0.089-3.734-0.022-7.474-0.381-11.182c-0.552-5.699-1.571-10.531-3.118-14.772c-1.333-3.651-3.153-7.081-5.097-10.404
			c8.182,9.38,12.046,22.933,8.965,35.09C305.753,576.838,305.628,577.268,305.486,577.698z M344.811,639.872
			c0.157,1.167,0.13,2.379,0.103,3.658l-0.238,11.224c-0.073-0.236-0.133-0.498-0.221-0.707c-1.638-3.867-3.742-7.255-6.161-10.107
			C339.75,641.701,342.247,640.157,344.811,639.872z M325.561,645.939c0.275,0.746,0.574,1.474,0.881,2.17
			c2.141,4.847,4.651,9.547,7.331,14.136c-0.943-0.506-1.937-0.952-2.996-1.304C327.383,656.724,325.605,651.336,325.561,645.939z
			 M328.536,669.106c-0.692-0.246-1.38-0.493-2.065-0.722c-4.94-1.66-10.048-2.558-15.235-2.679
			c1.307-0.887,3.212-1.532,5.699-1.923c4.039-0.638,7.24-0.715,10.072-0.24c3.433,0.577,6.421,2.062,8.41,4.177
			c0.678,0.722,1.264,1.522,1.851,2.321c0.234,0.317,0.469,0.634,0.709,0.948C334.952,671.404,331.829,670.28,328.536,669.106z
			 M339.765,667.605c-0.577-0.779-1.168-1.549-1.831-2.254c-0.761-0.808-1.658-1.512-2.615-2.161
			c-2.984-4.984-5.745-10.128-8.088-15.432c-0.653-1.48-1.238-3.013-1.535-4.559c0.142-1.345,0.354-2.682,0.726-3.985
			c0.312,0.125,0.611,0.294,0.918,0.435c4.542,5.552,8.267,11.688,10.988,18.342c0.891,2.18,1.822,4.798,2.193,7.543
			C340.253,666.221,339.984,666.909,339.765,667.605z M341.142,664.043c-0.464-2.321-1.25-4.51-2.014-6.376
			c-2.5-6.119-5.832-11.806-9.858-17.013c3.553,2.112,6.749,5.37,9.315,9.534c0.839,2.158,1.642,4.338,2.323,6.541
			c0.331,1.07,0.641,2.178,0.852,3.305C341.692,661.49,341.479,662.935,341.142,664.043z M343.873,666.486
			c0.177-0.365,0.336-0.761,0.481-1.2c2.468-5.424,6.678-10.492,12.282-14.688c0.951-0.712,2.19-1.39,3.067-1.39
			c0.267,0,0.499,0.064,0.682,0.206c0.68,0.53,0.53,2.082,0.162,3.357c-2.461,8.54-9.559,15.646-18.089,18.116
			C342.789,669.403,343.288,667.935,343.873,666.486z M336.629,688.741c1.858,1.159,3.243,2.311,4.307,3.514
			c-0.791,0.029-1.581,0.064-2.369,0.14c-5.979-4.56-13.305-7.222-20.831-7.484c-3.658-0.115-7.673,0.287-12.64,1.299
			c-1.709,0.346-3.418,0.754-5.119,1.189C311.337,681.537,325.766,681.957,336.629,688.741z M305.269,687.054
			c4.899-0.999,8.851-1.39,12.437-1.279c6.644,0.233,13.141,2.359,18.639,6.05c-5.775-1.998-13.242-2.49-19.431-2.679
			c-1.761-0.054-3.491-0.088-5.203-0.122c-4.214-0.083-8.235-0.169-12.4-0.499c-0.025-0.017-0.052-0.032-0.078-0.049
			C301.235,687.945,303.256,687.465,305.269,687.054z M300.744,689.441c3.647,0.241,7.239,0.373,10.949,0.447
			c1.711,0.034,3.437,0.068,5.195,0.122c6.163,0.186,13.574,0.7,19.245,2.686c-3.695,0.574-7.293,1.66-10.703,3.201
			c-0.005,0-0.01-0.003-0.015-0.002C316.8,696.252,308.23,694.049,300.744,689.441z M319.464,699.221
			c-0.683,0.459-1.377,0.899-2.031,1.4c-0.84,0.644-1.587,1.291-2.293,1.94c-3.624,0.985-6.87,3.298-9.65,5.571
			c-0.791,0.648-1.533,1.292-2.256,1.923c-2.144,1.866-4.081,3.489-6.602,4.619l5.191-8.955c1.066-1.839,2.168-3.739,3.759-4.967
			c2.828-2.183,6.919-2.116,11.216-1.849c0.002,0,0.002,0,0.003,0C317.686,699.031,318.572,699.145,319.464,699.221z
			 M288.644,700.945c-0.199-0.088-0.31-0.128-0.349-0.135c0.034-0.165,0.18-0.553,0.633-1.141c1.338-1.741,2.981-3.688,5.009-4.937
			c1.712-1.06,5.483-1.488,7.499-0.87c1.714,0.916,3.48,1.719,5.292,2.413c-1.147,0.407-2.251,0.967-3.258,1.744
			c-2.128,1.643-3.46,3.941-4.636,5.966l-0.747,1.289c-1.891-1.62-4.235-2.47-6.539-3.256
			C290.562,701.681,289.575,701.347,288.644,700.945z M295.301,710.081c-1.815,0.368-3.718,0.219-5.492-0.427l2.382-3.747
			c1.626,0.606,3.064,1.334,4.113,2.441L295.301,710.081z M307.092,718.67l-0.449,1.861c-3.206,0.231-6.431-1.571-9.25-3.705
			c0.607,0.11,1.223,0.184,1.854,0.184c2.075,0,4.26-0.526,6.487-1.137c0.71-0.194,1.503-0.418,2.267-0.739
			C307.671,716.335,307.371,717.526,307.092,718.67z M305.507,715.043c-3.211,0.881-6.322,1.572-9.034,0.688
			c2.932-1.195,5.075-3.06,7.329-5.024c0.717-0.624,1.451-1.265,2.236-1.906c2.279-1.864,4.879-3.75,7.717-4.869
			c-0.768,0.82-1.461,1.65-2.043,2.504c-1.593,2.328-2.586,4.948-3.364,7.553C307.442,714.486,306.409,714.795,305.507,715.043z
			 M338.348,703.716c-0.471,1.08-0.914,2.176-1.36,3.273c-1.277,3.148-2.483,6.124-4.305,8.749
			c-4.419,6.361-12.691,10.524-22.695,11.425c-0.837,0.078-1.221-0.034-1.318-0.034c-0.009,0-0.015,0-0.02,0
			c-0.008-0.165,0.089-0.574,0.128-0.735l1.674-6.914c0.936-3.867,1.905-7.869,4.112-11.094c1.167-1.711,2.792-3.351,4.97-5.018
			c6.772-5.186,15.228-7.842,23.721-7.72C341.187,697.851,339.732,700.547,338.348,703.716z M355.764,713.497
			c-0.901,1.051-1.809,2.126-2.625,3.224c1.399-6.883,5.49-13.224,9.956-19.619c0.002,0,0.002,0,0.002,0l0.261-0.381
			c1.861-2.701,3.238-4.137,4.142-4.393c0.02,0.002,0.042,0.01,0.062,0.01c0.074,0,0.132-0.057,0.202-0.066
			c0.243,2.128-0.749,4.368-1.989,6.507c-2.217,3.826-4.628,7.592-7.17,11.192C357.78,711.139,356.802,712.286,355.764,713.497z
			 M365.546,701.998c-1.695,3.006-3.902,5.763-6.19,8.407c2.539-3.602,4.952-7.368,7.167-11.194c0.913-1.576,1.728-3.214,2.06-4.859
			C368.468,695.746,367.771,698.06,365.546,701.998z M379.436,686.261c0,0,0,0-0.002,0c-2.138-1.91-3.75-4.469-5.306-6.956
			c0.459,0.535,0.928,1.066,1.375,1.598c1.1,1.306,2.235,2.655,3.428,3.921c1.264,1.34,2.826,2.416,4.336,3.459
			c0.147,0.101,0.285,0.204,0.43,0.305C382.302,688.252,380.438,687.158,379.436,686.261z M383.758,687.57
			c-1.474-1.016-2.998-2.065-4.197-3.34c-1.176-1.248-2.305-2.588-3.396-3.884c-1.134-1.346-2.293-2.723-3.531-4.029
			c4.71,2.848,8.707,6.836,11.557,11.553C384.047,687.769,383.904,687.671,383.758,687.57z M385.378,687.978
			c-0.022,0.074-0.049,0.081-0.073,0.138c-2.618-4.569-6.252-8.522-10.59-11.486c2.018,0.808,3.933,1.991,5.586,3.55
			C383.433,683.136,385.758,686.706,385.378,687.978z M421.403,727.858c0.339-0.152,1.503,0.044,2.947,1.626
			c11.142,12.167,20.023,25.98,26.515,41.083c-1.539-2.63-3.432-5.071-5.328-7.439l-0.467-0.584
			c-8.709-10.895-16.712-22.515-23.819-34.534C421.302,727.946,421.354,727.88,421.403,727.858z M444.395,763.085l0.469,0.584
			c2.289,2.858,4.611,5.804,6.207,9.068c-8.731-7.832-16.25-16.93-22.327-27.087c-0.511-0.854-1.11-1.798-1.75-2.807
			c-2.519-3.965-5.654-8.901-6.036-12.596c-0.046-0.435-0.044-0.789-0.022-1.1C427.957,740.952,435.831,752.369,444.395,763.085z
			 M412.645,732.66c0.484-0.324,1.026-0.646,1.583-0.936c-2.723,2.89-5.331,5.89-7.658,9.099c-3.438,4.741-5.922,9.141-7.592,13.453
			c-1.478,3.811-2.399,7.803-3.147,11.795C395.697,753.108,401.89,739.889,412.645,732.66z M413.605,756.489
			c-1.685,3.862-3.931,7.415-6.462,10.784c3.295-9.245,6.706-18.492,10.212-27.664C417.013,745.809,415.807,751.443,413.605,756.489
			z M417.462,736.883c-4.144,10.774-8.171,21.696-12.022,32.577c-2.389,2.968-4.962,5.809-7.557,8.584
			c-0.025-0.071-0.04-0.145-0.066-0.216c2.025-3.804,4.079-7.71,5.785-11.756c0.908-2.149,1.731-4.373,2.529-6.519
			c1.151-3.101,2.34-6.306,3.793-9.33c0.68-1.414,1.415-2.865,2.165-4.343c1.949-3.84,3.926-7.768,5.308-11.734
			C417.423,735.061,417.472,735.992,417.462,736.883z M417.329,731.275c-1.297,4.781-3.651,9.564-6.011,14.214
			c-0.751,1.485-1.49,2.942-2.173,4.363c-1.468,3.054-2.666,6.279-3.823,9.401c-0.795,2.139-1.615,4.349-2.516,6.482
			c-1.578,3.742-3.465,7.368-5.345,10.916c-0.693-2.256-1.164-4.57-1.41-6.921c0.855-5.105,1.849-10.285,3.732-15.144
			c1.643-4.238,4.091-8.577,7.486-13.257c2.649-3.649,5.632-7.061,8.79-10.29c0.289-0.061,0.577-0.12,0.862-0.12
			c0.135,0,0.268,0.007,0.4,0.024C417.329,731.057,417.32,731.16,417.329,731.275z M537.779,883.731
			c-1.23-0.941-2.534-2.365-2.16-3.286c0.322-0.789,1.836-1.07,3.155-1.07c0.012,0,0.024,0,0.034,0
			c8.886,0.047,17.651,4.943,22.349,12.481c-1.574,0.079-3.177-0.01-4.786-0.197c-0.311-0.047-0.631-0.083-0.977-0.099
			C549.458,890.673,543.387,888.016,537.779,883.731z M554.928,894.984c-2.107,1.078-3.997,2.43-5.586,3.671
			c-5.206,4.073-9.773,8.825-13.686,14.111c1.065-3.993,3.33-7.953,6.64-11.555c1.846-1.394,3.725-2.758,5.659-4.014
			c0.94-0.609,1.923-1.21,2.949-1.718C552.325,895.148,553.771,894.96,554.928,894.984z M530.672,898.024
			c1.07-0.459,2.234-0.763,3.491-1.09l10.865-2.823c-0.208,0.135-0.442,0.261-0.617,0.403c-3.275,2.627-5.964,5.573-8.049,8.677
			C533.809,902.399,531.643,900.415,530.672,898.024z M554.765,905.804c-3.136,4.413-7.84,7.59-13.021,9.099
			c0.644-0.467,1.265-0.953,1.852-1.437c4.084-3.383,7.924-7.078,11.609-10.901C554.975,903.61,554.817,904.687,554.765,905.804z
			 M557.061,897.717c-0.57,0.95-1.004,2.004-1.368,3.101c-3.98,4.223-8.179,8.277-12.648,11.978
			c-1.248,1.033-2.568,2.016-3.977,2.721c-1.314,0.226-2.64,0.383-3.975,0.383c-0.017,0-0.034,0-0.049,0
			c0.035-0.336,0.116-0.672,0.17-1.009c4.105-5.875,8.994-11.125,14.659-15.555c1.856-1.451,4.122-3.059,6.662-4.162
			c0.734,0.071,1.468,0.142,2.197,0.164C558.139,896.108,557.558,896.884,557.061,897.717z M561.26,918.347
			c-1.714-3.708-2.656-6.769-2.968-9.623c-0.376-3.462,0.238-6.738,1.731-9.232c0.509-0.847,1.122-1.626,1.731-2.409
			c0.241-0.314,0.484-0.624,0.72-0.941c1.211,2.797,0.989,6.104,0.756,9.589c-0.049,0.736-0.098,1.468-0.133,2.19
			c-0.251,5.21,0.275,10.372,1.566,15.39C563.453,922.295,562.314,920.635,561.26,918.347z M604.961,932.384
			c-0.056,1.039-0.11,2.082-0.245,3.087c-0.029,0.209-0.052,0.334-0.034,0.371c-0.169,0.02-0.584-0.027-1.269-0.3
			c-2.038-0.817-4.358-1.866-6.112-3.479c-1.486-1.367-2.941-4.903-2.882-7.002c0-0.002,0-0.003,0-0.005
			c0.412-1.886,0.729-3.788,0.904-5.704c0.698,0.987,1.532,1.891,2.546,2.642c2.168,1.606,4.739,2.261,7.005,2.838l1.442,0.369
			C605.272,927.463,605.091,929.95,604.961,932.384z M608.529,930.705c0.14-1.733,0.451-3.314,1.23-4.624l1.938,0.496
			c0.842,1.652,1.221,3.523,1.086,5.402L608.529,930.705z M605.729,921.485c-1.959-0.499-4.179-1.063-5.8-2.264
			c-2.866-2.126-3.921-6.08-4.832-10.291c-0.002-0.007-0.007-0.013-0.008-0.02c-0.12-0.892-0.277-1.778-0.449-2.662
			c0.639,0.543,1.265,1.102,1.94,1.606c0.849,0.634,1.674,1.178,2.49,1.68c1.933,3.219,5.041,5.713,7.983,7.768
			c0.839,0.587,1.662,1.124,2.463,1.647c2.38,1.557,4.469,2.981,6.244,5.1L605.729,921.485z M609.989,918.226
			c-0.795-0.52-1.609-1.053-2.441-1.633c-2.414-1.684-4.938-3.671-6.787-6.101c0.999,0.516,1.987,0.957,2.968,1.286
			c2.677,0.901,5.48,1.161,8.201,1.201c0.717,0.73,1.291,1.633,1.77,2.429c1.717,2.851,3.239,5.655,3.119,8.506
			C614.873,921.418,612.493,919.862,609.989,918.226z M617.635,922.697c-0.265-2.629-1.648-5.166-3.197-7.734
			c-0.38-0.629-0.81-1.329-1.328-1.977c1.243-0.01,2.472-0.049,3.644-0.091l1.917-0.073
			C619.759,915.833,618.915,919.412,617.635,922.697z M593.87,886.883c1.162,0.159,2.332,0.287,3.502,0.418
			c3.383,0.371,6.578,0.722,9.603,1.765c7.324,2.524,13.583,9.35,17.168,18.734c0.329,0.857,0.295,1.255,0.332,1.296
			c-0.159,0.054-0.579,0.071-0.744,0.074l-7.108,0.27c-3.978,0.152-8.09,0.307-11.796-0.935c-1.964-0.661-3.985-1.778-6.178-3.418
			c-6.833-5.109-11.749-12.512-13.878-20.731C587.454,885.745,590.442,886.414,593.87,886.883z M589.853,901.434
			c0.003,0.008,0,0.017,0.003,0.025c2.74,8.174,2.91,17.035,0.501,25.497c-0.756-3.565-1.603-7.049-2.537-10.627
			c-0.435-1.667-0.874-3.351-1.304-5.068c-1.498-5.984-3.023-13.259-2.649-19.263C585.423,895.399,587.444,898.569,589.853,901.434z
			 M585.678,911.471c0.43,1.721,0.87,3.408,1.307,5.078c1.061,4.066,2.068,7.948,2.88,12.036c-0.008,0.029-0.017,0.057-0.025,0.084
			c-1.055-1.777-2.065-3.592-3.01-5.422c-2.291-4.44-3.756-8.132-4.613-11.621c-1.584-6.455-1.306-13.284,0.754-19.581
			C582.619,898.149,584.174,905.468,585.678,911.471z M582.917,889.744c-2.765,6.995-3.335,14.769-1.539,22.091
			c0.872,3.553,2.36,7.305,4.685,11.81c0.852,1.653,1.827,3.253,2.77,4.867c-8.908-9.333-12.517-23.485-8.91-35.9
			c0.612-2.107,1.346-3.754,2.215-5.109C582.383,888.258,582.631,889.007,582.917,889.744z M639.157,870.852
			c-0.3,2.885-1.775,5.878-4.154,8.422c-1.962,2.095-4.552,3.978-8.152,5.918c-2.217,1.198-4.12,1.839-5.699,1.927
			c4.044-3.239,7.563-7.052,10.487-11.371c0.407-0.601,0.806-1.211,1.208-1.829c1.905-2.929,3.71-5.703,6.359-7.221
			c0,0.395,0.007,0.79,0.013,1.184C639.238,868.874,639.259,869.866,639.157,870.852z M650.684,896.091
			c0.044-6.576-0.758-13.116-2.48-19.496c-0.528-1.96-1.254-4.182-2.303-6.323c0.948,0.677,2.009,1.709,2.958,2.839
			c0.516,1.024,0.943,2.095,1.328,3.147c0.795,2.165,1.48,4.386,2.122,6.613C652.793,887.733,652.227,892.258,650.684,896.091z
			 M661.38,884.321c0.702,0.881,1.424,1.785,2.067,2.878c-2.22,1.422-5.099,1.694-7.58,0.81c0.192-3.735-0.189-7.705-1.232-11.773
			c-0.056-0.219-0.167-0.462-0.253-0.695L661.38,884.321z M668.2,867.491c1.068,0.793,2.129,1.933,1.91,2.767
			c-0.251,0.962-2.149,1.319-3.7,1.333c-7.018,0.013-13.455-1.444-18.715-4.255c-0.344-0.236-0.677-0.434-1.006-0.604
			c-1.368-0.801-2.674-1.675-3.857-2.669C651.117,860.85,661.066,862.2,668.2,867.491z M642.594,871.209
			c0.099-0.965,0.103-1.934,0.089-2.905c0.564,0.398,1.161,0.758,1.756,1.122c1.399,2.429,2.31,5.09,2.93,7.391
			c1.873,6.943,2.634,14.077,2.392,21.244c-0.16,0.3-0.297,0.617-0.469,0.908c-1.085-0.81-2.065-1.743-2.991-2.726
			c-0.704-1.407-1.169-2.984-1.547-4.559c-1.343-5.595-2.328-11.314-2.979-17.045C642.167,873.5,642.474,872.355,642.594,871.209z
			 M643.915,891.886c0.177,0.739,0.381,1.5,0.617,2.259c-3.239-4.316-5.095-9.679-4.955-15.091c0.587-0.864,1.09-1.756,1.517-2.666
			C641.749,881.602,642.694,886.795,643.915,891.886z M785.613,730.119c1.195-1.306,2.198-1.667,2.701-1.667
			c0.105,0,0.189,0.017,0.246,0.041c0.051,0.022,0.101,0.089,0.152,0.155c-7.108,12.024-15.112,23.643-23.817,34.532l-0.479,0.597
			c-1.891,2.362-3.779,4.798-5.313,7.422C765.593,756.097,774.474,742.286,785.613,730.119z M789.007,730.882
			c-0.385,3.695-3.519,8.635-6.038,12.603c-0.638,1.006-1.238,1.95-1.749,2.804c-6.077,10.156-13.596,19.255-22.326,27.082
			c1.594-3.259,3.912-6.2,6.197-9.053l0.479-0.597c8.56-10.71,16.434-22.128,23.459-33.935
			C789.051,730.095,789.051,730.45,789.007,730.882z M796.358,757.123c-2.202-5.046-3.406-10.678-3.749-16.876
			c3.506,9.171,6.916,18.418,10.21,27.664C800.291,764.543,798.045,760.99,796.358,757.123z M812.08,778.678
			c-2.595-2.775-5.168-5.613-7.557-8.581c-3.852-10.88-7.877-21.803-12.022-32.577c-0.008-0.891,0.039-1.822,0.066-2.737
			c1.383,3.968,3.362,7.897,5.311,11.741c0.749,1.475,1.483,2.922,2.163,4.333c1.451,3.023,2.642,6.232,3.793,9.333
			c0.798,2.149,1.621,4.37,2.527,6.519c1.701,4.027,3.757,7.943,5.785,11.756C812.121,778.534,812.105,778.607,812.08,778.678z
			 M797.318,733.297c10.757,7.229,16.951,20.45,16.815,33.41c-0.749-3.992-1.669-7.983-3.148-11.798
			c-1.67-4.309-4.154-8.709-7.59-13.45c-2.328-3.209-4.938-6.21-7.661-9.1C796.292,732.65,796.834,732.972,797.318,733.297z
			 M793.869,731.639c3.172,3.239,6.168,6.664,8.825,10.327c3.394,4.68,5.842,9.016,7.486,13.254
			c1.884,4.862,2.878,10.042,3.732,15.147c-0.246,2.348-0.715,4.663-1.409,6.919c-1.885-3.556-3.774-7.189-5.346-10.914
			c-0.899-2.133-1.719-4.343-2.514-6.482c-1.157-3.118-2.355-6.347-3.825-9.404c-0.682-1.421-1.419-2.872-2.17-4.353
			c-2.36-4.653-4.716-9.436-6.015-14.221c0.008-0.116,0-0.219,0.008-0.336C793.046,731.526,793.458,731.555,793.869,731.639z
			 M903.321,720.529l-0.45-1.859c-0.277-1.144-0.579-2.335-0.909-3.536c0.766,0.321,1.557,0.545,2.268,0.739
			c2.227,0.611,4.412,1.137,6.489,1.137c0.636,0,1.257-0.074,1.871-0.186C909.828,718.917,906.569,720.766,903.321,720.529z
			 M904.456,715.043c-0.903-0.248-1.933-0.557-2.838-1.054c-0.778-2.605-1.773-5.225-3.364-7.553
			c-0.584-0.854-1.275-1.684-2.045-2.504c2.84,1.119,5.438,3.005,7.717,4.869c0.784,0.641,1.52,1.282,2.235,1.906
			c2.254,1.964,4.397,3.83,7.329,5.024C910.78,716.615,907.669,715.924,904.456,715.043z M893.161,698.904c0.002,0,0.002,0,0.003,0
			c4.299-0.263,8.388-0.334,11.218,1.849c1.591,1.228,2.693,3.128,3.757,4.967l5.284,8.992c-2.566-1.13-4.525-2.769-6.695-4.656
			c-0.722-0.631-1.463-1.275-2.256-1.923c-2.779-2.273-6.026-4.586-9.65-5.571c-0.705-0.65-1.451-1.296-2.293-1.94
			c-0.655-0.501-1.348-0.941-2.03-1.4C891.391,699.145,892.277,699.031,893.161,698.904z M884.549,695.894
			c-0.005,0-0.01,0.002-0.015,0.002c-3.41-1.54-7.01-2.625-10.706-3.199c5.67-1.987,13.085-2.502,19.248-2.688
			c1.758-0.054,3.484-0.088,5.195-0.122c3.73-0.074,7.342-0.206,11.012-0.452C901.911,694.005,893.254,696.27,884.549,695.894z
			 M914.662,710.078l-1.004-1.729c1.049-1.107,2.487-1.836,4.113-2.441l2.377,3.754C918.401,710.295,916.486,710.44,914.662,710.078
			z M916.027,694.733c2.028,1.248,3.671,3.195,5.011,4.937c0.533,0.692,0.644,1.12,0.715,1.049c-0.034,0.03-0.138,0.098-0.43,0.223
			c-0.933,0.405-1.92,0.739-2.907,1.076c-2.305,0.786-4.648,1.637-6.539,3.256l-0.747-1.289c-1.176-2.025-2.507-4.322-4.636-5.966
			c-1.007-0.778-2.112-1.338-3.261-1.743c1.812-0.695,3.58-1.498,5.296-2.414C910.544,693.245,914.316,693.677,916.027,694.733z
			 M910.704,688.521c-4.184,0.334-8.221,0.42-12.451,0.503c-1.712,0.034-3.442,0.068-5.203,0.122
			c-6.19,0.189-13.656,0.682-19.432,2.679c5.5-3.691,11.995-5.817,18.639-6.05c0.415-0.013,0.835-0.02,1.262-0.02
			c3.253,0,6.845,0.418,11.175,1.299c2.026,0.413,4.057,0.896,6.068,1.431C910.743,688.496,910.724,688.508,910.704,688.521z
			 M873.334,688.741c10.765-6.721,25.032-7.19,36.521-1.377c-1.658-0.422-3.324-0.816-4.989-1.154
			c-4.967-1.012-8.982-1.414-12.64-1.299c-7.526,0.262-14.852,2.924-20.833,7.484c-0.788-0.074-1.576-0.11-2.369-0.138
			C870.092,691.054,871.477,689.9,873.334,688.741z M890.43,703.368c2.178,1.667,3.804,3.307,4.972,5.018
			c2.207,3.226,3.174,7.228,4.11,11.094l1.674,6.914c0.042,0.172,0.152,0.624,0.197,0.655c-0.003,0.003-0.331,0.206-1.405,0.115
			c-10.005-0.901-18.277-5.065-22.695-11.425c-1.822-2.625-3.028-5.601-4.307-8.749c-0.444-1.097-0.889-2.193-1.36-3.273
			c-1.382-3.168-2.838-5.861-4.906-8.068C875.198,695.563,883.658,698.182,890.43,703.368z M893.028,663.782
			c2.487,0.391,4.392,1.036,5.699,1.923c-5.185,0.122-10.295,1.019-15.235,2.679c-0.685,0.229-1.373,0.476-2.065,0.722
			c-3.292,1.171-6.416,2.284-9.439,1.883c0.238-0.314,0.472-0.631,0.707-0.948c0.589-0.8,1.173-1.599,1.852-2.321
			c1.989-2.116,4.975-3.6,8.409-4.177C885.79,663.063,888.989,663.141,893.028,663.782z M879.187,660.94
			c-1.06,0.353-2.052,0.798-2.995,1.304c2.677-4.589,5.188-9.289,7.329-14.136c0.307-0.695,0.607-1.424,0.881-2.17
			C884.359,651.336,882.581,656.724,879.187,660.94z M883.541,639.214c0.371,1.302,0.585,2.64,0.725,3.985
			c-0.295,1.544-0.882,3.079-1.535,4.559c-2.342,5.304-5.104,10.448-8.086,15.432c-0.958,0.65-1.856,1.353-2.615,2.161
			c-0.665,0.705-1.253,1.475-1.832,2.254c-0.218-0.695-0.486-1.383-0.756-2.07c0.371-2.745,1.302-5.363,2.193-7.543
			c2.721-6.654,6.446-12.79,10.988-18.342C882.931,639.507,883.229,639.339,883.541,639.214z M880.695,640.655
			c-4.027,5.206-7.358,10.894-9.86,17.013c-0.763,1.866-1.549,4.054-2.014,6.376c-0.337-1.108-0.55-2.553-0.616-4.009
			c0.209-1.127,0.521-2.235,0.852-3.305c0.682-2.203,1.483-4.383,2.323-6.541C873.947,646.025,877.14,642.767,880.695,640.655z
			 M865.152,639.987c2.625,0.218,5.08,1.746,6.519,3.953c-2.421,2.853-4.523,6.241-6.163,10.107
			c-0.088,0.209-0.147,0.469-0.219,0.707l-0.24-11.224C865.025,642.355,865,641.235,865.152,639.987z M849.418,652.771
			c-0.368-1.276-0.52-2.828,0.159-3.357c0.184-0.142,0.417-0.206,0.683-0.206c0.881,0,2.117,0.678,3.069,1.39
			c5.605,4.196,9.812,9.264,12.282,14.688c0.143,0.439,0.304,0.835,0.479,1.2c0.587,1.449,1.085,2.917,1.416,4.402
			C858.974,668.414,851.878,661.312,849.418,652.771z M842.401,692.338c0.022,0,0.042-0.008,0.064-0.01
			c0.904,0.257,2.279,1.692,4.14,4.393l0.263,0.381c4.467,6.396,8.559,12.736,9.956,19.619c-0.816-1.1-1.722-2.173-2.623-3.224
			c-1.038-1.211-2.018-2.359-2.843-3.526c-2.541-3.6-4.953-7.366-7.17-11.192c-1.238-2.139-2.232-4.38-1.989-6.507
			C842.271,692.28,842.328,692.338,842.401,692.338z M843.44,699.211c2.217,3.828,4.63,7.594,7.169,11.196
			c-2.288-2.644-4.495-5.4-6.192-8.408c-2.225-3.938-2.92-6.253-3.035-7.646C841.713,695.997,842.528,697.635,843.44,699.211z
			 M830.529,686.261c-1.005,0.896-2.871,1.994-4.267,2.328c0.147-0.101,0.287-0.206,0.434-0.307
			c1.512-1.043,3.074-2.119,4.336-3.459c1.193-1.265,2.33-2.615,3.428-3.921c0.447-0.53,0.914-1.06,1.37-1.593
			C834.276,681.797,832.665,684.353,830.529,686.261z M833.8,680.346c-1.093,1.296-2.222,2.635-3.398,3.884
			c-1.2,1.275-2.723,2.325-4.198,3.34c-0.143,0.101-0.288,0.199-0.432,0.3c2.85-4.717,6.846-8.706,11.557-11.553
			C836.093,677.623,834.934,678.999,833.8,680.346z M829.661,680.18c1.653-1.559,3.568-2.742,5.586-3.55
			c-4.336,2.964-7.97,6.916-10.588,11.484c-0.025-0.059-0.051-0.066-0.073-0.14C824.207,686.706,826.53,683.136,829.661,680.18z
			 M846.656,576.882c0.484,2.122,1.383,4.64,2.5,7.192l-30.161-30.161c1.324,0.85,2.701,1.64,4.174,2.281
			c2.343,1.022,6.396,1.839,10.512,1.839c2.905,0,5.844-0.408,8.235-1.438c1.037-0.447,1.895-1.012,2.65-1.643
			C844.339,562.318,845.019,569.69,846.656,576.882z M816.833,548.177l-8.626-6.34c5.669,3.022,11.55,5.65,17.571,7.815
			c4.603,1.658,9.981,3.286,15.545,3.369c-0.248,0.138-0.491,0.282-0.773,0.403c-4.704,2.021-12.49,1.137-16.001-0.398
			C821.808,551.835,819.277,549.976,816.833,548.177z M829.457,535.095c0,0,0,0,0.002,0c3.84,1.164,7.449,3.452,10.161,6.438
			c3.089,3.401,4.658,6.618,4.218,8.544c-7.007-8.26-17.096-13.983-27.783-15.788C820.364,533.683,824.965,533.735,829.457,535.095z
			 M813.437,534.753c11.54,1.267,22.622,7.288,30.041,16.222c-0.167,0.304-0.373,0.587-0.616,0.855
			c-1.827-1.216-3.607-2.563-5.328-3.885c-3.308-2.541-6.73-5.166-10.634-6.856c-7.724-3.351-14.514-4.746-20.638-4.292
			C808.438,535.993,810.872,535.281,813.437,534.753z M803.253,538.024c6.753-1.264,14.391-0.003,23.304,3.853
			c3.804,1.65,7.184,4.245,10.45,6.755c1.555,1.194,3.155,2.423,4.805,3.553c-0.02,0-0.04,0-0.059,0
			c-5.588,0-11.032-1.67-15.683-3.344c-7.919-2.851-15.606-6.479-22.864-10.796C803.216,538.041,803.241,538.031,803.253,538.024z
			 M795.072,507.899c0.766,0,1.532-0.066,2.296-0.118c-0.037,0.056-0.029,0.084-0.081,0.148c-0.862,1.036-5.036,1.086-9.303,0.098
			c-2.289-0.53-4.405-1.507-6.237-2.801C785.967,506.961,790.505,507.899,795.072,507.899z M780.519,503.782
			c1.768,0.307,3.551,0.51,5.294,0.705c1.689,0.192,3.435,0.391,5.13,0.678c1.729,0.294,3.452,0.982,5.115,1.647
			c0.16,0.064,0.32,0.128,0.481,0.189C791.037,507.281,785.501,506.127,780.519,503.782z M796.38,506.009
			c-1.707-0.682-3.472-1.387-5.291-1.694c-1.719-0.294-3.477-0.493-5.178-0.685c-0.68-0.078-1.372-0.172-2.058-0.256
			c2.922-0.093,5.937-0.162,8.711,0.56c0.002,0,0.002,0.003,0.003,0.003c1.306,0.337,3.27,1.286,4.317,2.264
			C796.716,506.136,796.549,506.077,796.38,506.009z M797.969,483.652c-2.294,4.521-3.968,6.345-5.072,7.055
			c1.363-1.211,2.406-2.905,3.292-4.697c1.95-3.95,3.749-8.044,5.346-12.174C800.603,477.208,799.531,480.574,797.969,483.652z
			 M792.359,484.765l0.174-0.439c2.851-7.266,5.873-14.184,10.831-19.16c-0.464,1.294-0.871,2.637-1.248,3.977
			c-0.434,1.532-0.842,2.983-1.358,4.316c-1.596,4.127-3.393,8.22-5.343,12.167c-1.086,2.202-2.391,4.257-4.273,5.244
			c-0.034-0.068-0.088-0.12-0.13-0.184C790.694,489.816,791.126,487.854,792.359,484.765z M780.747,424.354l-1.299,1.405
			c-0.798,0.864-1.621,1.773-2.438,2.713c-0.155-0.815-0.407-1.599-0.639-2.298c-0.951-2.87-2.006-5.579-3.86-7.492
			C775.787,419.823,779.139,421.518,780.747,424.354z M770.997,427.434c0.386-2.966,0.753-5.783,0.12-8.888
			c2.246,1.765,3.386,4.741,4.434,7.899c0.295,0.889,0.611,1.92,0.697,2.949c-1.736,2.09-3.366,4.37-4.424,6.988
			c-0.391,0.968-0.68,2.036-0.94,3.143c-0.655-2.998-0.525-6.229-0.234-9.176C770.749,429.34,770.876,428.371,770.997,427.434z
			 M770.31,419.17c0.479,2.76,0.201,5.299-0.17,8.152c-0.123,0.948-0.25,1.923-0.349,2.939c-0.356,3.609-0.479,7.634,0.746,11.223
			c-0.145,0.935-0.309,1.842-0.378,2.882c-0.056,0.84-0.039,1.679-0.04,2.519c-0.562-0.707-1.132-1.402-1.733-2.074
			c-0.005-0.007-0.005-0.013-0.01-0.02c-2.607-3.428-4.925-6.802-4.675-10.362c0.14-2.001,1.112-3.972,2.052-5.881L770.31,419.17z
			 M762.378,416.366c1.495,1.103,2.677,2.615,3.388,4.339l-0.884,1.795c-1.503-0.26-2.907-1.055-4.314-2.073L762.378,416.366z
			 M753.568,421.164c0.282-0.827,0.567-1.151,0.472-1.178c0.046,0.013,0.159,0.061,0.429,0.236c0.854,0.553,1.68,1.191,2.507,1.825
			c1.932,1.481,3.938,2.961,6.337,3.636l-0.66,1.338c-1.038,2.102-2.212,4.488-2.399,7.164c-0.089,1.259,0.056,2.48,0.351,3.653
			c-1.571-1.115-3.222-2.109-4.923-3.022c-1.637-1.324-3.376-4.727-3.447-6.745C752.149,425.692,752.861,423.246,753.568,421.164z
			 M770.643,453.631c0.005,0.007,0.013,0.01,0.017,0.019c0.609,3.693,1.704,7.29,3.275,10.685
			c-4.805-3.622-9.341-9.512-12.911-14.54c-1.026-1.444-2.018-2.871-3-4.285c-2.111-3.037-4.142-5.951-6.357-8.844
			C759.518,440.269,766.189,446.186,770.643,453.631z M750.013,435.945c2.591,3.29,4.893,6.592,7.3,10.057
			c0.985,1.417,1.979,2.845,3.006,4.292c3.583,5.048,8.13,10.986,12.999,14.691c-6.122-2.531-11.493-6.762-15.366-12.164
			c-2.092-2.919-3.945-6.435-5.829-11.061c-0.78-1.917-1.507-3.872-2.175-5.844C749.971,435.926,749.991,435.937,750.013,435.945z
			 M770.906,466.932c-11.675-5.293-20.031-17.084-21.44-30.012c0.602,1.733,1.171,3.48,1.858,5.164
			c1.91,4.694,3.794,8.267,5.927,11.243c4.392,6.122,10.669,10.745,17.781,13.197c0.373,0.695,0.779,1.37,1.195,2.045
			C774.633,468.348,772.904,467.833,770.906,466.932z M780.329,468.616c-4.859-6.964-7.285-15.508-6.721-24.021
			c0.179-2.733,0.644-4.997,1.421-6.917c1.466-3.631,4.258-6.651,6.958-9.573l4.832-5.23c0.118-0.128,0.432-0.469,0.43-0.52
			c0.003,0,0.361,0.155,0.876,1.103c4.796,8.827,5.913,18.022,3.067,25.226c-1.176,2.973-2.983,5.625-4.898,8.436
			c-0.665,0.975-1.329,1.954-1.967,2.942C782.453,462.967,781.017,465.67,780.329,468.616z M774.904,483.803
			c4.579,2.22,8.667,5.232,12.434,8.245c0.916,1.154,1.841,2.301,2.792,3.427c1.537,1.819,2.963,3.585,4.277,5.424
			c-0.373-0.13-0.714-0.241-0.974-0.309c-3.292-0.857-6.753-0.749-9.805-0.668l-7.57,0.216c-0.623,0.02-1.186,0.371-1.476,0.921
			c-0.292,0.55-0.263,1.215,0.073,1.738c2.723,4.248,7.299,7.379,12.552,8.598c1.184,0.273,3.801,0.796,6.433,0.796
			c2.224,0,4.41-0.422,5.8-1.635c2.642,7.769,2.254,15.763-1.172,22.629l-35.544-35.544c1.532-5.578,1.572-11.575-0.175-17.074
			c-0.012-0.034-0.022-0.067-0.034-0.101C766.477,480.635,770.705,481.765,774.904,483.803z M754.222,506.768
			c-0.859,1.016-2.068,1.984-2.883,1.731c-0.945-0.314-1.179-2.23-1.095-3.779c0.386-6.981,2.269-13.288,5.409-18.347
			c0.3-0.38,0.552-0.749,0.766-1.113c0.876-1.279,1.812-2.495,2.855-3.585C761.944,490.147,759.965,499.99,754.222,506.768z
			 M746.63,488.23c-2.205,0.651-4.447,1.189-6.689,1.684c-4.85,0.174-9.299-0.661-13.013-2.411c1.677,0.115,3.354,0.174,5.031,0.174
			c4.845,0,9.684-0.483,14.465-1.448c1.989-0.401,4.253-0.982,6.455-1.891c0,0.002-0.002,0.002-0.002,0.003
			c-0.734,0.901-1.831,1.891-3.018,2.765C748.803,487.557,747.705,487.913,746.63,488.23z M747.079,492.462l-9.215,6.421
			c-0.965,0.671-1.885,1.313-3.006,1.879c-1.279-2.32-1.363-5.227-0.309-7.651c1.351,0.157,2.715,0.299,4.133,0.299
			c2.482,0,5.058-0.243,7.681-0.739C746.588,492.629,746.839,492.533,747.079,492.462z M724.905,486.405
			c-0.29-0.179-0.601-0.334-0.879-0.526c0.879-1.031,1.876-1.95,2.917-2.812c1.449-0.609,3.05-0.972,4.643-1.247
			c5.701-0.987,11.516-1.54,17.33-1.819c1.07,0.437,2.151,0.793,3.243,0.978c0.957,0.162,1.922,0.226,2.892,0.273
			c-0.434,0.538-0.833,1.113-1.237,1.684c-2.514,1.238-5.225,1.976-7.56,2.45C739.207,486.806,732.04,487.103,724.905,486.405z
			 M739.215,464.368c-1.051-2.288-1.571-4.228-1.557-5.807c2.974,4.245,6.553,8,10.673,11.196c0.572,0.442,1.159,0.881,1.75,1.323
			c2.801,2.089,5.458,4.069,6.796,6.809c-0.395-0.027-0.79-0.044-1.184-0.064c-0.99-0.047-1.982-0.088-2.958-0.253
			c-2.86-0.482-5.75-2.149-8.135-4.687C742.632,470.792,740.921,468.086,739.215,464.368z M744.519,477.463
			c0.827,0.641,1.684,1.201,2.566,1.686c-5.254,0.319-10.495,0.928-15.646,1.82c-0.746,0.13-1.517,0.283-2.288,0.467
			C733.665,478.491,739.133,476.987,744.519,477.463z M480.837,481.443c-0.779-0.187-1.557-0.342-2.313-0.474
			c-5.149-0.892-10.393-1.502-15.645-1.82c0.881-0.484,1.739-1.044,2.564-1.686C470.842,476.955,476.319,478.475,480.837,481.443z
			 M470.043,489.918c-2.249-0.494-4.498-1.033-6.71-1.687c-1.075-0.317-2.171-0.673-3.228-1.124
			c-1.188-0.872-2.284-1.863-3.018-2.765c-0.002-0.002-0.002-0.002-0.003-0.003c2.203,0.909,4.466,1.49,6.455,1.891
			c4.783,0.965,9.62,1.448,14.467,1.448c1.677,0,3.354-0.059,5.033-0.175C479.328,489.253,474.886,490.09,470.043,489.918z
			 M475.2,500.823c-1.06-0.52-2.052-1.211-3.099-1.94l-9.215-6.419c0.238,0.069,0.489,0.165,0.714,0.207
			c2.625,0.496,5.2,0.739,7.682,0.739c1.421,0,2.782-0.142,4.133-0.299C476.486,495.571,476.389,498.523,475.2,500.823z
			 M463.711,485.386c-2.335-0.474-5.048-1.211-7.562-2.45c-0.401-0.57-0.801-1.146-1.235-1.684c0.968-0.047,1.935-0.111,2.892-0.273
			c1.09-0.186,2.173-0.542,3.243-0.978c5.814,0.278,11.629,0.832,17.328,1.819c1.598,0.277,3.202,0.641,4.655,1.252
			c1.038,0.862,2.03,1.78,2.905,2.807c-0.278,0.192-0.587,0.348-0.877,0.526C477.923,487.103,470.756,486.806,463.711,485.386z
			 M459.883,471.079c0.59-0.442,1.178-0.881,1.749-1.323c4.12-3.195,7.7-6.951,10.674-11.196c0.013,1.579-0.506,3.519-1.557,5.807
			c-1.707,3.718-3.418,6.424-5.384,8.517c-2.387,2.537-5.277,4.204-8.137,4.687c-0.975,0.165-1.966,0.206-2.956,0.253
			c-0.396,0.02-0.791,0.037-1.186,0.064C454.427,475.148,457.082,473.168,459.883,471.079z M450.69,481.674
			c1.043,1.09,1.981,2.306,2.856,3.585c0.213,0.364,0.464,0.734,0.764,1.113c3.141,5.06,5.024,11.366,5.409,18.347
			c0.086,1.549-0.15,3.465-1.092,3.779c-0.818,0.26-2.026-0.715-2.887-1.731C450,499.99,448.019,490.147,450.69,481.674z
			 M460.536,436.814c-1.299,12.836-9.703,24.782-21.477,30.115c-1.997,0.904-3.727,1.417-5.319,1.638
			c0.413-0.673,0.82-1.348,1.193-2.043c7.113-2.451,13.391-7.074,17.782-13.197c2.133-2.976,4.015-6.549,5.925-11.243
			C459.341,440.365,459.923,438.582,460.536,436.814z M459.922,435.986c0.027-0.012,0.054-0.025,0.083-0.037
			c-0.666,1.96-1.388,3.906-2.165,5.812c-1.884,4.626-3.735,8.142-5.827,11.061c-3.875,5.402-9.245,9.634-15.368,12.164
			c4.869-3.705,9.417-9.643,13.001-14.691c1.026-1.444,2.02-2.875,3.003-4.289C455.047,442.553,457.342,439.262,459.922,435.986z
			 M458.26,436.714c-2.2,2.877-4.221,5.775-6.32,8.795c-0.982,1.414-1.974,2.841-3,4.285c-3.57,5.028-8.107,10.917-12.911,14.54
			c1.572-3.395,2.666-6.991,3.275-10.685c0.005-0.007,0.012-0.012,0.017-0.019C443.73,446.262,450.314,440.389,458.26,436.714z
			 M452.988,422.048c0.827-0.634,1.653-1.272,2.507-1.825c0.179-0.115,0.289-0.176,0.304-0.216c0.121,0.121,0.361,0.462,0.597,1.161
			c0.709,2.078,1.419,4.525,1.335,6.904c-0.073,2.018-1.812,5.422-3.448,6.745c0,0,0,0-0.002,0.002
			c-1.699,0.913-3.351,1.906-4.92,3.022c0.294-1.174,0.439-2.394,0.351-3.654c-0.187-2.676-1.363-5.061-2.401-7.164l-0.66-1.338
			C449.05,425.009,451.056,423.53,452.988,422.048z M447.595,416.366l1.802,4.059c-1.407,1.021-2.811,1.814-4.314,2.075
			l-0.886-1.797C444.906,418.991,446.081,417.483,447.595,416.366z M439.636,419.264l4.576,9.283c0.941,1.91,1.913,3.88,2.053,5.881
			c0.248,3.56-2.07,6.934-4.677,10.362c-0.005,0.007-0.005,0.014-0.01,0.02c-0.599,0.672-1.171,1.367-1.731,2.074
			c-0.003-0.84,0.014-1.679-0.042-2.519c-0.068-1.039-0.233-1.947-0.378-2.882c1.227-3.589,1.102-7.614,0.747-11.223
			c-0.101-1.016-0.228-1.991-0.351-2.939C439.457,424.501,439.18,421.989,439.636,419.264z M438.846,418.546
			c-0.633,3.104-0.265,5.922,0.12,8.888c0.123,0.938,0.248,1.906,0.348,2.915c0.29,2.946,0.422,6.178-0.234,9.176
			c-0.258-1.107-0.548-2.175-0.94-3.143c-1.058-2.618-2.686-4.898-4.424-6.988c0.088-1.029,0.403-2.06,0.697-2.949
			C435.462,423.287,436.602,420.31,438.846,418.546z M437.427,418.703c-1.839,1.911-2.887,4.614-3.835,7.472
			c-0.231,0.699-0.483,1.481-0.639,2.298c-0.817-0.941-1.64-1.851-2.438-2.716l-1.299-1.405
			C430.8,421.556,434.089,419.867,437.427,418.703z M425.638,460.062c-0.636-0.989-1.301-1.967-1.965-2.942
			c-1.915-2.811-3.723-5.463-4.898-8.436c-2.848-7.204-1.729-16.399,3.065-25.226c0.439-0.807,0.763-1.039,0.766-1.093
			c0.148,0.084,0.43,0.391,0.543,0.516l4.828,5.22c2.699,2.926,5.493,5.945,6.958,9.576c0.776,1.92,1.242,4.184,1.422,6.917
			c0.562,8.51-1.863,17.057-6.723,24.021C428.946,465.67,427.51,462.967,425.638,460.062z M406.599,465.166
			c4.96,4.977,7.982,11.894,10.833,19.16l0.174,0.439c1.232,3.089,1.665,5.051,1.348,5.92c-0.042,0.064-0.098,0.116-0.132,0.184
			c-1.881-0.987-3.187-3.042-4.273-5.244c-1.949-3.948-3.747-8.041-5.343-12.167c-0.515-1.333-0.924-2.784-1.358-4.316
			C407.469,467.803,407.064,466.46,406.599,465.166z M411.994,483.652c-1.561-3.077-2.634-6.443-3.567-9.816
			c1.599,4.13,3.396,8.225,5.346,12.174c0.881,1.782,1.918,3.465,3.27,4.677C415.94,489.968,414.275,488.146,411.994,483.652z
			 M424.053,503.63c-1.701,0.192-3.46,0.391-5.178,0.685c-1.82,0.307-3.585,1.012-5.292,1.694c-0.169,0.067-0.336,0.126-0.503,0.192
			c1.046-0.978,3.01-1.927,4.316-2.264c0.002,0,0.003-0.003,0.003-0.003c1.895-0.493,3.901-0.614,5.915-0.614
			c0.933,0,1.866,0.025,2.792,0.054C425.42,503.458,424.73,503.553,424.053,503.63z M429.445,503.782
			c-4.982,2.342-10.519,3.496-16.021,3.219c0.159-0.061,0.319-0.125,0.479-0.189c1.665-0.665,3.386-1.353,5.115-1.647
			c1.695-0.287,3.442-0.486,5.13-0.678C425.894,504.292,427.677,504.089,429.445,503.782z M414.892,507.899
			c4.565,0,9.104-0.938,13.325-2.672c-1.832,1.294-3.948,2.271-6.236,2.801c-4.27,0.985-8.444,0.941-9.306-0.098
			c-0.052-0.064-0.044-0.093-0.081-0.148C413.361,507.833,414.125,507.899,414.892,507.899z M410.789,510.777
			c1.4,1.041,3.45,1.414,5.534,1.414c2.632,0,5.25-0.523,6.435-0.796c5.254-1.218,9.827-4.349,12.55-8.598
			c0.336-0.523,0.364-1.188,0.074-1.738c-0.29-0.55-0.855-0.901-1.476-0.921l-7.568-0.216c-3.054-0.088-6.516-0.185-9.809,0.668
			c-0.258,0.068-0.601,0.177-0.972,0.309c1.314-1.839,2.738-3.605,4.275-5.424c0.952-1.125,1.876-2.273,2.792-3.427
			c3.769-3.013,7.855-6.025,12.434-8.245c4.199-2.038,8.427-3.168,12.392-3.337c-0.012,0.034-0.024,0.068-0.034,0.101
			c-1.749,5.498-1.709,11.498-0.175,17.075l-34.437,34.438C409.578,525.156,408.9,517.708,410.789,510.777z M383.893,548.842
			c-4.667,1.68-10.123,3.378-15.742,3.344c1.65-1.13,3.249-2.359,4.805-3.553c3.268-2.511,6.646-5.105,10.452-6.755
			c8.935-3.874,16.589-5.139,23.353-3.847c-0.005,0.008-0.019,0.02-0.024,0.027C399.486,542.37,391.806,545.992,383.893,548.842z
			 M401.757,541.837l-8.624,6.34c-2.446,1.799-4.975,3.658-7.719,4.852c-3.511,1.525-11.295,2.413-15.999,0.395
			c-0.284-0.122-0.525-0.265-0.774-0.403c5.564-0.083,10.943-1.711,15.547-3.369C390.208,547.487,396.088,544.859,401.757,541.837z
			 M403.601,536.789c-6.099-0.429-12.856,0.965-20.537,4.299c-3.904,1.69-7.324,4.316-10.634,6.856
			c-1.719,1.323-3.501,2.669-5.328,3.885c-0.243-0.268-0.447-0.552-0.616-0.855c7.401-8.911,18.449-14.923,29.96-16.21
			C399.013,535.292,401.419,535.986,403.601,536.789z M370.342,541.533c2.715-2.986,6.323-5.274,10.163-6.438
			c2.78-0.844,5.603-1.194,8.371-1.194c1.721,0,3.413,0.147,5.068,0.381c-10.701,1.8-20.805,7.526-27.82,15.795
			C365.686,548.152,367.253,544.934,370.342,541.533z M363.307,576.882c1.637-7.192,2.318-14.563,2.089-21.929
			c0.756,0.631,1.615,1.196,2.65,1.643c2.391,1.029,5.33,1.438,8.237,1.438c4.117,0,8.167-0.817,10.509-1.836
			c1.476-0.643,2.855-1.432,4.177-2.284l-30.08,30.08C361.993,581.401,362.848,578.896,363.307,576.882z M804.154,677.466
			c-0.067,0.02-0.123,0.073-0.187,0.103c-0.096,0.042-0.182,0.089-0.267,0.148c-0.049,0.034-0.105,0.045-0.15,0.084
			c-0.046,0.039-0.066,0.094-0.106,0.138c-0.079,0.081-0.145,0.167-0.208,0.263c-0.064,0.103-0.115,0.204-0.155,0.315
			c-0.005,0.013-0.015,0.025-0.02,0.04L649.948,831.672c-0.201,0.12-0.385,0.277-0.53,0.481c-0.035,0.051-0.073,0.108-0.108,0.157
			l-44.329,44.329L407.591,679.247c-0.081-0.299-0.181-0.597-0.26-0.896c-0.224-0.84-1.031-1.321-1.871-1.237l-66.403-66.403
			l109.431-109.43c1.156,2.787,2.669,5.421,4.618,7.72c1.668,1.97,3.479,3.003,5.223,3.003c0.469,0,0.933-0.074,1.388-0.226
			c2.44-0.813,3.664-3.388,3.452-7.248c-0.164-2.973-0.607-5.821-1.262-8.54l8.218,5.726c1.144,0.796,2.327,1.62,3.676,2.268
			c0.257,0.121,0.877,0.418,1.625,0.418c0.331,0,0.687-0.057,1.046-0.213c0.811-0.354,1.232-1.039,1.414-1.336
			c1.871-3.076,2.138-6.976,0.94-10.362c4.068-0.93,7.74-2.544,10.663-4.974c0.7-0.584,0.827-1.613,0.29-2.348
			c-3.644-4.987-9.053-8.535-14.985-10.189l130.191-130.19l130.185,130.183c-5.932,1.653-11.341,5.208-14.983,10.195
			c-0.538,0.736-0.412,1.765,0.29,2.348c2.922,2.433,6.593,4.046,10.662,4.975c-1.199,3.384-0.931,7.285,0.941,10.364
			c0.179,0.294,0.599,0.979,1.409,1.333c0.361,0.155,0.717,0.213,1.048,0.213c0.747,0,1.37-0.297,1.63-0.418
			c1.345-0.648,2.527-1.471,3.673-2.268l8.218-5.726c-0.656,2.72-1.098,5.567-1.262,8.54c-0.214,3.86,1.012,6.435,3.452,7.248
			c0.456,0.152,0.919,0.226,1.388,0.226c1.743,0,3.555-1.033,5.222-3.003c1.95-2.299,3.464-4.933,4.619-7.722l109.43,109.431
			L804.154,677.466z M919.821,559.622c-1.621,5.088-4.27,9.968-7.933,14.695c3.273-8.847,6.664-17.698,10.138-26.483
			C921.689,551.84,921.042,555.796,919.821,559.622z M922.271,533.735c0.094,3.737,0.128,7.506-0.056,11.248
			c-4.14,10.413-8.183,20.952-12.041,31.451c-0.597,0.702-1.208,1.404-1.852,2.099c1.562-3.835,2.689-8.017,3.749-12.139
			c0.403-1.566,0.798-3.101,1.211-4.575c0.882-3.155,2.072-6.276,3.221-9.293c0.795-2.089,1.618-4.248,2.335-6.411
			c1.346-4.052,2.359-8.226,3.327-12.313C922.202,533.781,922.234,533.756,922.271,533.735z M904.858,566.516
			c-0.359,3.708-0.469,7.449-0.381,11.182c-0.142-0.43-0.265-0.86-0.368-1.269c-3.082-12.157,0.781-25.71,8.964-35.09
			c-1.944,3.324-3.764,6.754-5.095,10.404C906.43,555.985,905.41,560.817,904.858,566.516z M906.285,580.661
			c-0.314-0.236-0.582-0.536-0.818-0.874c-0.206-4.397-0.172-8.815,0.251-13.19c0.543-5.621,1.549-10.386,3.071-14.556
			c1.726-4.734,4.275-9.127,6.885-13.377c1.677-1.579,3.497-2.984,5.439-4.198c-0.904,3.791-1.854,7.643-3.096,11.38
			c-0.712,2.143-1.53,4.292-2.323,6.374c-1.156,3.033-2.35,6.171-3.244,9.363c-0.415,1.481-0.812,3.027-1.215,4.596
			c-1.262,4.903-2.605,9.893-4.694,14.214C906.454,580.482,906.375,580.571,906.285,580.661z M910.393,586.323
			c-1.982,0.206-2.92-0.375-3.064-0.688c-0.022-0.051-0.018-0.133-0.012-0.219c12.711-4.167,25.823-7.464,38.993-9.775l0.725-0.128
			c2.73-0.476,5.497-1.009,8.154-1.854C941.03,580.393,925.994,584.669,910.393,586.323z M946.887,574.661l-0.727,0.128
			c-12.937,2.271-25.813,5.5-38.316,9.554c0.174-0.223,0.393-0.467,0.675-0.73c2.618-2.443,8.002-4.019,12.328-5.281
			c1.095-0.32,2.124-0.621,3.032-0.914c10.764-3.467,21.897-5.233,33.098-5.301C953.791,573.432,950.299,574.066,946.887,574.661z"
			/>
		<path style="fill:#CCB8B8;" d="M938.985,621.303c-5.488-3.907-11.612-6.954-18.201-9.06c-11.498-3.664-23.723-4.262-35.355-1.717
			c-1.272,0.277-7.678,1.876-8.81,6.047c-0.373,1.373-0.277,3.513,2.299,5.885c4.96,4.572,12.075,6.553,17.172,7.406
			c3.33,0.56,6.691,0.763,10.028,0.763c4.027,0,8.017-0.297,11.874-0.631c6.662-0.57,13.716-1.326,20.301-3.681
			c1.603-0.57,2.048-1.559,2.139-2.291C940.561,622.99,940.073,622.076,938.985,621.303z M886.166,613.9
			c4.491-0.979,9.075-1.468,13.669-1.468c6.699,0,13.421,1.039,19.898,3.104c3.381,1.08,6.612,2.45,9.706,4.039
			c-15.653-3.823-32.109-5.073-48.1-3.688C882.504,615.066,884.257,614.317,886.166,613.9z M932.598,621.293
			c0.111,0.064,0.216,0.138,0.326,0.204c-2.856,0.169-5.529,0.548-8.127,0.93c-3.411,0.503-6.936,1.019-10.855,1.019
			c-0.121,0-0.243,0-0.364,0c-8.412-0.071-17.109-0.142-25.521-1.512c-3.357-0.55-6.134-2.402-7.717-5.122
			C897.721,615.167,915.693,616.723,932.598,621.293z M917.695,626.554c-6.831,0.587-14.082,1.07-21.033-0.098
			c-4.634-0.776-11.068-2.544-15.402-6.536c-0.661-0.612-1.365-1.471-1.304-2.242c1.75,2.679,4.545,4.548,7.96,5.107
			c8.479,1.383,17.21,1.454,25.661,1.525c0.123,0,0.246,0,0.371,0c3.975,0,7.531-0.52,10.975-1.026
			c2.949-0.434,6.001-0.854,9.296-0.97c0.596,0.378,1.21,0.73,1.792,1.129C930.119,625.363,923.745,626.034,917.695,626.554z"/>
		<path style="fill:#CCB8B8;" d="M941.667,550.846c0.839,0,1.675-0.162,2.451-0.503c2.205-0.972,3.855-3.249,4.414-6.094
			c0.336-1.711,0.202-3.206-0.396-4.444c-0.752-1.566-2.264-2.554-4.255-2.787c-2.703-0.327-5.853,0.823-7.329,2.645
			c-1.901,2.345-2.068,5.841-0.398,8.311C937.387,549.797,939.537,550.846,941.667,550.846z M939.236,541.837
			c0.589-0.725,2.217-1.414,3.723-1.414c0.177,0,0.351,0.01,0.523,0.027c0.795,0.094,1.313,0.381,1.542,0.857
			c0.263,0.543,0.304,1.329,0.118,2.274c-0.265,1.343-1.038,2.993-2.418,3.6c-1.225,0.543-2.924,0.02-3.708-1.144
			C938.204,544.836,938.3,542.991,939.236,541.837z"/>
		<path style="fill:#CCB8B8;" d="M961.255,546.962c-1.874-0.267-3.739,0.56-5.25,2.261c-0.558,0.631-0.968,1.306-1.221,2.008
			c-0.874,2.423,0.216,5.395,2.484,6.765c0.945,0.57,2.041,0.854,3.153,0.854c1.318,0,2.656-0.398,3.786-1.181
			c0.741-0.51,1.314-1.12,1.707-1.808c0.862-1.508,0.865-3.496,0.012-5.193C964.869,548.562,963.166,547.212,961.255,546.962z
			 M962.912,554.149c-0.135,0.236-0.359,0.462-0.672,0.678c-0.97,0.672-2.279,0.759-3.185,0.213
			c-0.862-0.523-1.339-1.755-1.021-2.639c0.103-0.287,0.29-0.584,0.557-0.884c0.727-0.82,1.513-1.211,2.217-1.13
			c0.756,0.101,1.495,0.766,2.031,1.832C963.168,552.874,963.198,553.647,962.912,554.149z"/>
		<path style="fill:#CCB8B8;" d="M958.368,534.609c0.646,0.294,1.363,0.523,2.057,0.371c0.896-0.196,1.571-1.016,1.825-1.915
			c0.256-0.899,0.155-1.862-0.037-2.777c-0.759-3.58-5.463-1.351-5.837,1.368c-0.059,0.422-0.04,0.862,0.11,1.262
			C956.791,533.737,957.584,534.253,958.368,534.609z"/>
		<path style="fill:#CCB8B8;" d="M976.625,527.513c-0.454,1.034-0.138,2.316,0.619,3.145c0.509,0.557,1.257,0.946,1.996,0.83
			c0.297-0.047,0.58-0.172,0.837-0.334c0.93-0.585,1.532-1.716,1.409-2.823C981.214,525.904,977.62,525.244,976.625,527.513z"/>
		<path style="fill:#CCB8B8;" d="M559.763,378.271c0.022,0,0.046,0,0.067,0c2.343-0.034,3.56-1.221,4.169-2.214
			c2.033-3.307,0.037-9.083-0.822-10.845c-1.792-3.678-4.491-6.654-7.101-9.532l-6.203-6.84c-0.418-0.462-1.053-0.675-1.66-0.523
			c-0.607,0.135-1.093,0.59-1.274,1.184c-1.748,5.804-1.031,12.424,1.964,18.164C550.206,370.159,554.824,378.271,559.763,378.271z
			 M553.518,358.002c2.448,2.699,4.979,5.49,6.555,8.722c0.898,1.839,1.689,5.154,1.221,6.921c-0.186-0.52-0.378-1.034-0.557-1.562
			c-0.719-2.112-1.463-4.295-2.61-6.212c-1.09-1.815-2.296-3.597-3.464-5.321c-1.004-1.483-2.008-3.005-2.966-4.555L553.518,358.002
			z M553.948,361.035c1.161,1.714,2.362,3.482,3.438,5.281c1.1,1.839,1.829,3.975,2.532,6.043c0.116,0.347,0.234,0.692,0.353,1.033
			c-4.915-5.146-8.458-11.543-10.227-18.43C551.255,357.06,552.619,359.072,553.948,361.035z M560.408,374.726
			c-0.165,0.049-0.363,0.086-0.629,0.089c-0.007,0-0.014,0-0.02,0c-2.02,0-5.542-4.44-7.791-8.749
			c-1.643-3.148-2.453-6.583-2.472-9.944C551.471,363.126,555.239,369.581,560.408,374.726z"/>
		<path style="fill:#CCB8B8;" d="M534.607,376.958c-0.597,1.242-0.731,2.736-0.395,4.444c0.558,2.845,2.208,5.126,4.414,6.097
			c0.776,0.341,1.611,0.503,2.45,0.503c2.133,0,4.284-1.049,5.515-2.871c1.67-2.473,1.503-5.969-0.4-8.314v-0.003
			c-1.474-1.819-4.628-2.932-7.331-2.639C536.873,374.407,535.361,375.393,534.607,376.958z M539.783,377.576
			c1.507,0,3.136,0.692,3.725,1.417c0.936,1.154,1.032,3,0.219,4.201c-0.783,1.157-2.482,1.687-3.71,1.141
			c-1.378-0.604-2.151-2.257-2.416-3.6c-0.13-0.658-0.214-1.586,0.118-2.274c0.228-0.472,0.746-0.759,1.54-0.854
			C539.432,377.586,539.606,377.576,539.783,377.576z"/>
		<path style="fill:#CCB8B8;" d="M518.539,394.825c1.132,0.783,2.472,1.181,3.789,1.181c1.11,0,2.207-0.283,3.148-0.854
			c2.269-1.37,3.361-4.346,2.483-6.769c-0.255-0.705-0.665-1.38-1.221-2.008c-1.512-1.701-3.378-2.51-5.25-2.257
			c-1.91,0.25-3.612,1.599-4.67,3.702c-0.852,1.697-0.847,3.688,0.012,5.19C517.221,393.698,517.793,394.305,518.539,394.825z
			 M519.905,389.372c0.535-1.063,1.276-1.731,2.031-1.829c0.066-0.01,0.133-0.014,0.201-0.014c0.65,0,1.358,0.398,2.016,1.141
			c0.265,0.297,0.452,0.597,0.557,0.887c0.321,0.884-0.159,2.116-1.021,2.639c-0.904,0.55-2.215,0.459-3.18-0.209
			c-0.314-0.219-0.542-0.449-0.678-0.688C519.548,390.803,519.578,390.027,519.905,389.372z"/>
		<path style="fill:#CCB8B8;" d="M522.32,372.135c0.693,0.152,1.41-0.078,2.057-0.371c0.784-0.356,1.577-0.872,1.883-1.69
			c0.148-0.4,0.169-0.84,0.11-1.264c-0.375-2.718-5.078-4.948-5.836-1.367c-0.194,0.914-0.294,1.878-0.039,2.777
			C520.749,371.118,521.424,371.939,522.32,372.135z"/>
		<path style="fill:#CCB8B8;" d="M691.753,397.2c0.068,0,0.135-0.003,0.203-0.003c2.983-0.101,5.714-2.291,6.494-5.21
			c0.604-2.264-0.327-5.48-2.17-7.481c-1.356-1.474-3.043-2.116-4.754-1.809c-1.353,0.246-2.64,1.016-3.828,2.291
			c-1.974,2.126-2.848,4.802-2.338,7.157C685.982,395.014,688.767,397.2,691.753,397.2z M690.23,387.344
			c0.656-0.708,1.318-1.137,1.91-1.245c0.069-0.014,0.14-0.02,0.211-0.02c0.452,0,0.918,0.257,1.385,0.766
			c1.113,1.211,1.645,3.243,1.375,4.251c-0.383,1.434-1.82,2.598-3.27,2.645c-1.402,0.047-2.821-1.019-3.104-2.328
			C688.418,389.939,689.299,388.343,690.23,387.344z"/>
		<path style="fill:#CCB8B8;" d="M668.088,377.751c-0.327,0.725-0.482,1.549-0.462,2.446c0.057,2.537,1.591,4.872,3.815,5.807
			c0.697,0.293,1.442,0.432,2.185,0.432c1.866,0,3.718-0.877,4.749-2.399c0.42-0.621,0.725-1.35,0.906-2.17
			c0.489-2.224,0.044-4.204-1.255-5.574c-1.326-1.4-3.418-1.987-5.741-1.603C670.41,374.998,668.802,376.169,668.088,377.751z
			 M673.666,378.028c0.801,0,1.454,0.223,1.849,0.641c0.488,0.513,0.628,1.387,0.391,2.456c-0.086,0.388-0.218,0.715-0.391,0.972
			c-0.526,0.776-1.803,1.117-2.735,0.722c-0.974-0.408-1.672-1.522-1.699-2.703c-0.009-0.371,0.045-0.698,0.157-0.945
			c0.236-0.523,0.881-0.955,1.604-1.073C673.129,378.052,673.406,378.028,673.666,378.028z"/>
		<path style="fill:#CCB8B8;" d="M689.715,371.369c0.749,0.425,1.633,0.763,2.475,0.53c0.41-0.115,0.778-0.358,1.086-0.655
			c1.979-1.9,1.019-7.017-2.325-5.525c-0.854,0.381-1.692,0.867-2.269,1.601c-0.577,0.736-0.845,1.763-0.476,2.603
			C688.49,370.573,689.098,371.018,689.715,371.369z"/>
		<path style="fill:#CCB8B8;" d="M502.668,368.307c0.256,0.162,0.538,0.289,0.837,0.336c0.739,0.115,1.486-0.273,1.996-0.832
			c0.758-0.828,1.073-2.109,0.619-3.143c-0.995-2.269-4.589-1.609-4.861,0.817C501.136,366.593,501.738,367.721,502.668,368.307z"/>
		<path style="fill:#CCB8B8;" d="M546.708,871.783c0.179,0.594,0.667,1.049,1.274,1.184c0.127,0.03,0.253,0.044,0.38,0.044
			c0.483,0,0.95-0.202,1.281-0.567l6.202-6.839c2.612-2.878,5.311-5.854,7.103-9.532c0.859-1.761,2.855-7.538,0.82-10.845
			c-0.607-0.992-1.826-2.18-4.169-2.214c-4.975,0.051-9.62,8.102-10.926,10.605C545.678,859.359,544.962,865.979,546.708,871.783z
			 M561.061,847.64c0.469,1.766-0.324,5.081-1.22,6.921c-1.578,3.232-4.108,6.023-6.556,8.722l-1.824,2.011
			c0.958-1.549,1.959-3.067,2.963-4.548c1.169-1.728,2.381-3.513,3.472-5.335c1.147-1.917,1.891-4.1,2.61-6.212
			C560.685,848.673,560.877,848.16,561.061,847.64z M549.813,866.32c1.77-6.887,5.313-13.281,10.227-18.427
			c-0.118,0.341-0.234,0.685-0.353,1.029c-0.703,2.068-1.432,4.208-2.534,6.043c-1.078,1.802-2.281,3.58-3.445,5.298
			C552.382,862.22,551.023,864.224,549.813,866.32z M551.736,855.219c2.245-4.312,5.768-8.749,7.791-8.749c0.007,0,0.013,0,0.02,0
			c0.267,0.003,0.464,0.041,0.629,0.089c-5.169,5.146-8.935,11.601-10.912,18.604C549.283,861.8,550.095,858.364,551.736,855.219z"
			/>
		<path style="fill:#CCB8B8;" d="M538.394,833.786c-2.205,0.972-3.855,3.253-4.415,6.097c-0.334,1.707-0.203,3.202,0.396,4.44
			c0.754,1.566,2.264,2.554,4.253,2.787c0.304,0.034,0.612,0.051,0.923,0.051c2.465,0,5.097-1.076,6.408-2.689v-0.003
			c1.903-2.345,2.07-5.841,0.398-8.314C544.642,833.62,541.144,832.584,538.394,833.786z M543.277,842.292
			c-0.658,0.81-2.617,1.569-4.246,1.387c-0.795-0.094-1.314-0.381-1.542-0.857c-0.263-0.543-0.304-1.329-0.118-2.271
			c0.263-1.343,1.036-2.996,2.414-3.6c0.331-0.145,0.695-0.216,1.065-0.216c1.011,0,2.074,0.509,2.647,1.357
			C544.31,839.292,544.212,841.138,543.277,842.292z"/>
		<path style="fill:#CCB8B8;" d="M525.245,826.133c-2.06-1.245-4.849-1.117-6.946,0.331c-0.736,0.513-1.306,1.12-1.699,1.805
			c-0.86,1.505-0.865,3.496-0.012,5.196c1.056,2.102,2.758,3.452,4.668,3.701c0.221,0.03,0.442,0.044,0.663,0.044
			c1.647,0,3.254-0.8,4.587-2.301c0.557-0.628,0.967-1.302,1.223-2.008C528.604,830.479,527.514,827.503,525.245,826.133z
			 M524.481,831.727c-0.106,0.29-0.294,0.591-0.558,0.887c-0.727,0.82-1.513,1.255-2.217,1.127c-0.756-0.098-1.497-0.766-2.03-1.829
			c-0.331-0.655-0.361-1.431-0.078-1.927c0.137-0.24,0.364-0.469,0.671-0.685c0.547-0.378,1.2-0.57,1.827-0.57
			c0.491,0,0.965,0.118,1.36,0.358C524.32,829.612,524.798,830.843,524.481,831.727z"/>
		<path style="fill:#CCB8B8;" d="M524.145,849.521c-0.648-0.294-1.365-0.523-2.057-0.373c-0.896,0.197-1.571,1.017-1.826,1.917
			c-0.256,0.898-0.157,1.863,0.037,2.777c0.759,3.58,5.463,1.351,5.837-1.367c0.057-0.423,0.039-0.864-0.11-1.264
			C525.722,850.393,524.93,849.877,524.145,849.521z"/>
		<path style="fill:#CCB8B8;" d="M691.725,824.088c-3.065-0.007-5.961,2.119-6.597,5.051c-0.511,2.355,0.364,5.031,2.338,7.157
			c1.183,1.272,2.468,2.041,3.828,2.291c0.28,0.051,0.558,0.074,0.837,0.074c1.415,0,2.782-0.651,3.916-1.883
			c1.842-2.001,2.775-5.217,2.171-7.481C697.437,826.379,694.707,824.189,691.725,824.088z M693.505,834.44
			c-0.542,0.587-1.08,0.844-1.591,0.746c-0.599-0.108-1.262-0.54-1.917-1.245c-0.931-0.999-1.812-2.595-1.491-4.069
			c0.282-1.302,1.62-2.332,3.01-2.332c0.032,0,0.064,0,0.095,0.003c1.449,0.047,2.887,1.211,3.27,2.645
			C695.149,831.198,694.618,833.229,693.505,834.44z"/>
		<path style="fill:#CCB8B8;" d="M678.145,837.251c-1.446-2.136-4.491-3.003-6.936-1.971c-2.224,0.935-3.757,3.27-3.815,5.807
			c-0.02,0.898,0.135,1.721,0.461,2.443c0.712,1.579,2.318,2.753,4.196,3.064c0.466,0.078,0.923,0.115,1.365,0.115
			c1.766,0,3.317-0.597,4.376-1.718c1.301-1.373,1.746-3.354,1.257-5.574C678.869,838.597,678.563,837.868,678.145,837.251z
			 M675.284,842.616c-0.525,0.557-1.498,0.769-2.669,0.57c-0.727-0.122-1.373-0.553-1.61-1.076c-0.11-0.243-0.164-0.57-0.157-0.941
			c0.027-1.181,0.727-2.294,1.701-2.703c0.265-0.111,0.557-0.165,0.854-0.165c0.744,0,1.505,0.334,1.883,0.891
			c0.172,0.253,0.304,0.58,0.39,0.968C675.91,841.229,675.771,842.1,675.284,842.616z"/>
		<path style="fill:#CCB8B8;" d="M691.959,849.386c-0.844-0.234-1.726,0.105-2.475,0.53c-0.617,0.351-1.225,0.796-1.51,1.446
			c-0.368,0.84-0.1,1.868,0.477,2.602c0.577,0.735,1.416,1.221,2.269,1.603c3.342,1.49,4.304-3.626,2.323-5.527
			C692.737,849.744,692.369,849.499,691.959,849.386z"/>
		<path style="fill:#CCB8B8;" d="M503.274,852.643c-0.299,0.047-0.58,0.172-0.837,0.334c-0.93,0.585-1.532,1.716-1.409,2.823
			c0.27,2.428,3.865,3.087,4.861,0.817c0.454-1.032,0.138-2.315-0.619-3.143C504.76,852.916,504.013,852.526,503.274,852.643z"/>
	</g>
</g>
</svg>
